<svg width="1024" height="380" viewBox="0 0 1024 380" fill="none" xmlns="http://www.w3.org/2000/svg">
<path d="M275.174 33.36C271.468 33.36 268.654 32.3867 266.734 30.44C264.814 28.4667 263.854 25.6 263.854 21.84V6.2C263.854 5.08 264.401 4.52 265.494 4.52C266.588 4.52 267.134 5.08 267.134 6.2V21.68C267.134 27.52 269.814 30.44 275.174 30.44C280.481 30.44 283.134 27.52 283.134 21.68V6.2C283.134 5.08 283.694 4.52 284.814 4.52C285.881 4.52 286.414 5.08 286.414 6.2V21.84C286.414 25.6 285.454 28.4667 283.534 30.44C281.641 32.3867 278.854 33.36 275.174 33.36ZM299.276 33.36C298.076 33.36 296.862 33.2133 295.636 32.92C294.436 32.6 293.316 32.0933 292.276 31.4C291.796 31.1067 291.556 30.7333 291.556 30.28C291.582 29.8 291.769 29.4267 292.116 29.16C292.462 28.8933 292.902 28.8933 293.436 29.16C294.476 29.8 295.476 30.2533 296.436 30.52C297.422 30.76 298.396 30.88 299.356 30.88C300.876 30.88 302.022 30.6 302.796 30.04C303.569 29.48 303.956 28.72 303.956 27.76C303.956 27.0133 303.702 26.4267 303.196 26C302.689 25.5467 301.889 25.2 300.796 24.96L297.156 24.16C293.849 23.44 292.196 21.7333 292.196 19.04C292.196 17.28 292.889 15.8667 294.276 14.8C295.689 13.7333 297.529 13.2 299.796 13.2C300.942 13.2 302.049 13.36 303.116 13.68C304.182 13.9733 305.142 14.4533 305.996 15.12C306.449 15.44 306.649 15.8267 306.596 16.28C306.542 16.7333 306.329 17.0933 305.956 17.36C305.609 17.6 305.182 17.56 304.676 17.24C303.876 16.7067 303.062 16.32 302.236 16.08C301.409 15.8133 300.596 15.68 299.796 15.68C298.302 15.68 297.169 15.9733 296.396 16.56C295.622 17.1467 295.236 17.92 295.236 18.88C295.236 20.3733 296.222 21.3333 298.196 21.76L301.836 22.52C303.542 22.8933 304.836 23.4933 305.716 24.32C306.596 25.12 307.036 26.2133 307.036 27.6C307.036 29.3867 306.329 30.8 304.916 31.84C303.502 32.8533 301.622 33.36 299.276 33.36ZM320.734 33.36C317.667 33.36 315.24 32.4667 313.454 30.68C311.667 28.8667 310.774 26.4133 310.774 23.32C310.774 21.32 311.174 19.56 311.974 18.04C312.774 16.4933 313.867 15.3067 315.254 14.48C316.667 13.6267 318.294 13.2 320.134 13.2C322.774 13.2 324.84 14.0533 326.334 15.76C327.827 17.44 328.574 19.76 328.574 22.72C328.574 23.5467 328.107 23.96 327.174 23.96H313.934C314.04 26.1733 314.68 27.8667 315.854 29.04C317.027 30.1867 318.654 30.76 320.734 30.76C321.614 30.76 322.507 30.6533 323.414 30.44C324.32 30.2 325.2 29.7867 326.054 29.2C326.667 28.8 327.174 28.72 327.574 28.96C328 29.2 328.214 29.5733 328.214 30.08C328.24 30.56 327.974 30.9867 327.414 31.36C326.534 32 325.48 32.4933 324.254 32.84C323.054 33.1867 321.88 33.36 320.734 33.36ZM320.214 15.6C318.374 15.6 316.92 16.1733 315.854 17.32C314.787 18.4667 314.16 19.9733 313.974 21.84H325.774C325.694 19.8667 325.174 18.3333 324.214 17.24C323.28 16.1467 321.947 15.6 320.214 15.6ZM334.903 33.28C333.809 33.28 333.263 32.72 333.263 31.6V14.92C333.263 13.8267 333.783 13.28 334.823 13.28C335.889 13.28 336.423 13.8267 336.423 14.92V17.04C336.956 15.8133 337.783 14.88 338.903 14.24C340.023 13.5733 341.356 13.2133 342.903 13.16C343.756 13.08 344.209 13.5067 344.263 14.44C344.343 15.3733 343.863 15.8933 342.823 16L342.183 16.08C340.343 16.24 338.943 16.8267 337.983 17.84C337.023 18.8267 336.543 20.1867 336.543 21.92V31.6C336.543 32.72 335.996 33.28 334.903 33.28ZM364.471 33.36C363.271 33.36 362.058 33.2133 360.831 32.92C359.631 32.6 358.511 32.0933 357.471 31.4C356.991 31.1067 356.751 30.7333 356.751 30.28C356.778 29.8 356.964 29.4267 357.311 29.16C357.658 28.8933 358.098 28.8933 358.631 29.16C359.671 29.8 360.671 30.2533 361.631 30.52C362.618 30.76 363.591 30.88 364.551 30.88C366.071 30.88 367.218 30.6 367.991 30.04C368.764 29.48 369.151 28.72 369.151 27.76C369.151 27.0133 368.898 26.4267 368.391 26C367.884 25.5467 367.084 25.2 365.991 24.96L362.351 24.16C359.044 23.44 357.391 21.7333 357.391 19.04C357.391 17.28 358.084 15.8667 359.471 14.8C360.884 13.7333 362.724 13.2 364.991 13.2C366.138 13.2 367.244 13.36 368.311 13.68C369.378 13.9733 370.338 14.4533 371.191 15.12C371.644 15.44 371.844 15.8267 371.791 16.28C371.738 16.7333 371.524 17.0933 371.151 17.36C370.804 17.6 370.378 17.56 369.871 17.24C369.071 16.7067 368.258 16.32 367.431 16.08C366.604 15.8133 365.791 15.68 364.991 15.68C363.498 15.68 362.364 15.9733 361.591 16.56C360.818 17.1467 360.431 17.92 360.431 18.88C360.431 20.3733 361.418 21.3333 363.391 21.76L367.031 22.52C368.738 22.8933 370.031 23.4933 370.911 24.32C371.791 25.12 372.231 26.2133 372.231 27.6C372.231 29.3867 371.524 30.8 370.111 31.84C368.698 32.8533 366.818 33.36 364.471 33.36ZM384.049 33.36C379.382 33.36 377.049 30.7867 377.049 25.64V14.92C377.049 13.8267 377.582 13.28 378.649 13.28C379.742 13.28 380.289 13.8267 380.289 14.92V25.6C380.289 27.3333 380.636 28.6133 381.329 29.44C382.049 30.2667 383.169 30.68 384.689 30.68C386.342 30.68 387.689 30.1333 388.729 29.04C389.769 27.92 390.289 26.44 390.289 24.6V14.92C390.289 13.8267 390.836 13.28 391.929 13.28C392.996 13.28 393.529 13.8267 393.529 14.92V31.6C393.529 32.72 393.009 33.28 391.969 33.28C390.902 33.28 390.369 32.72 390.369 31.6V29.72C389.756 30.8933 388.889 31.8 387.769 32.44C386.676 33.0533 385.436 33.36 384.049 33.36ZM407.831 33.36C405.884 33.36 404.204 32.9467 402.791 32.12C401.377 31.2667 400.284 30.08 399.511 28.56C398.764 27.0133 398.391 25.2133 398.391 23.16C398.391 20.0667 399.231 17.64 400.911 15.88C402.591 14.0933 404.897 13.2 407.831 13.2C408.791 13.2 409.791 13.36 410.831 13.68C411.871 13.9733 412.817 14.4667 413.671 15.16C414.124 15.48 414.311 15.88 414.231 16.36C414.177 16.84 413.951 17.2 413.551 17.44C413.177 17.68 412.737 17.6267 412.231 17.28C411.511 16.7467 410.791 16.3733 410.071 16.16C409.377 15.9467 408.697 15.84 408.031 15.84C406.004 15.84 404.444 16.48 403.351 17.76C402.257 19.0133 401.711 20.8267 401.711 23.2C401.711 25.52 402.257 27.36 403.351 28.72C404.444 30.0533 406.004 30.72 408.031 30.72C408.697 30.72 409.377 30.6133 410.071 30.4C410.791 30.1867 411.511 29.8133 412.231 29.28C412.737 28.9333 413.177 28.8933 413.551 29.16C413.924 29.4 414.124 29.76 414.151 30.24C414.204 30.72 414.017 31.1067 413.591 31.4C412.737 32.0933 411.804 32.6 410.791 32.92C409.777 33.2133 408.791 33.36 407.831 33.36ZM425.956 33.36C424.009 33.36 422.329 32.9467 420.916 32.12C419.502 31.2667 418.409 30.08 417.636 28.56C416.889 27.0133 416.516 25.2133 416.516 23.16C416.516 20.0667 417.356 17.64 419.036 15.88C420.716 14.0933 423.022 13.2 425.956 13.2C426.916 13.2 427.916 13.36 428.956 13.68C429.996 13.9733 430.942 14.4667 431.796 15.16C432.249 15.48 432.436 15.88 432.356 16.36C432.302 16.84 432.076 17.2 431.676 17.44C431.302 17.68 430.862 17.6267 430.356 17.28C429.636 16.7467 428.916 16.3733 428.196 16.16C427.502 15.9467 426.822 15.84 426.156 15.84C424.129 15.84 422.569 16.48 421.476 17.76C420.382 19.0133 419.836 20.8267 419.836 23.2C419.836 25.52 420.382 27.36 421.476 28.72C422.569 30.0533 424.129 30.72 426.156 30.72C426.822 30.72 427.502 30.6133 428.196 30.4C428.916 30.1867 429.636 29.8133 430.356 29.28C430.862 28.9333 431.302 28.8933 431.676 29.16C432.049 29.4 432.249 29.76 432.276 30.24C432.329 30.72 432.142 31.1067 431.716 31.4C430.862 32.0933 429.929 32.6 428.916 32.92C427.902 33.2133 426.916 33.36 425.956 33.36ZM444.601 33.36C441.534 33.36 439.107 32.4667 437.321 30.68C435.534 28.8667 434.641 26.4133 434.641 23.32C434.641 21.32 435.041 19.56 435.841 18.04C436.641 16.4933 437.734 15.3067 439.121 14.48C440.534 13.6267 442.161 13.2 444.001 13.2C446.641 13.2 448.707 14.0533 450.201 15.76C451.694 17.44 452.441 19.76 452.441 22.72C452.441 23.5467 451.974 23.96 451.041 23.96H437.801C437.907 26.1733 438.547 27.8667 439.721 29.04C440.894 30.1867 442.521 30.76 444.601 30.76C445.481 30.76 446.374 30.6533 447.281 30.44C448.187 30.2 449.067 29.7867 449.921 29.2C450.534 28.8 451.041 28.72 451.441 28.96C451.867 29.2 452.081 29.5733 452.081 30.08C452.107 30.56 451.841 30.9867 451.281 31.36C450.401 32 449.347 32.4933 448.121 32.84C446.921 33.1867 445.747 33.36 444.601 33.36ZM444.081 15.6C442.241 15.6 440.787 16.1733 439.721 17.32C438.654 18.4667 438.027 19.9733 437.841 21.84H449.641C449.561 19.8667 449.041 18.3333 448.081 17.24C447.147 16.1467 445.814 15.6 444.081 15.6ZM463.69 33.36C462.49 33.36 461.277 33.2133 460.05 32.92C458.85 32.6 457.73 32.0933 456.69 31.4C456.21 31.1067 455.97 30.7333 455.97 30.28C455.997 29.8 456.183 29.4267 456.53 29.16C456.877 28.8933 457.317 28.8933 457.85 29.16C458.89 29.8 459.89 30.2533 460.85 30.52C461.837 30.76 462.81 30.88 463.77 30.88C465.29 30.88 466.437 30.6 467.21 30.04C467.983 29.48 468.37 28.72 468.37 27.76C468.37 27.0133 468.117 26.4267 467.61 26C467.103 25.5467 466.303 25.2 465.21 24.96L461.57 24.16C458.263 23.44 456.61 21.7333 456.61 19.04C456.61 17.28 457.303 15.8667 458.69 14.8C460.103 13.7333 461.943 13.2 464.21 13.2C465.357 13.2 466.463 13.36 467.53 13.68C468.597 13.9733 469.557 14.4533 470.41 15.12C470.863 15.44 471.063 15.8267 471.01 16.28C470.957 16.7333 470.743 17.0933 470.37 17.36C470.023 17.6 469.597 17.56 469.09 17.24C468.29 16.7067 467.477 16.32 466.65 16.08C465.823 15.8133 465.01 15.68 464.21 15.68C462.717 15.68 461.583 15.9733 460.81 16.56C460.037 17.1467 459.65 17.92 459.65 18.88C459.65 20.3733 460.637 21.3333 462.61 21.76L466.25 22.52C467.957 22.8933 469.25 23.4933 470.13 24.32C471.01 25.12 471.45 26.2133 471.45 27.6C471.45 29.3867 470.743 30.8 469.33 31.84C467.917 32.8533 466.037 33.36 463.69 33.36ZM482.948 33.36C481.748 33.36 480.534 33.2133 479.308 32.92C478.108 32.6 476.988 32.0933 475.948 31.4C475.468 31.1067 475.228 30.7333 475.228 30.28C475.254 29.8 475.441 29.4267 475.788 29.16C476.134 28.8933 476.574 28.8933 477.108 29.16C478.148 29.8 479.148 30.2533 480.108 30.52C481.094 30.76 482.068 30.88 483.028 30.88C484.548 30.88 485.694 30.6 486.468 30.04C487.241 29.48 487.628 28.72 487.628 27.76C487.628 27.0133 487.374 26.4267 486.868 26C486.361 25.5467 485.561 25.2 484.468 24.96L480.828 24.16C477.521 23.44 475.868 21.7333 475.868 19.04C475.868 17.28 476.561 15.8667 477.948 14.8C479.361 13.7333 481.201 13.2 483.468 13.2C484.614 13.2 485.721 13.36 486.788 13.68C487.854 13.9733 488.814 14.4533 489.668 15.12C490.121 15.44 490.321 15.8267 490.268 16.28C490.214 16.7333 490.001 17.0933 489.628 17.36C489.281 17.6 488.854 17.56 488.348 17.24C487.548 16.7067 486.734 16.32 485.908 16.08C485.081 15.8133 484.268 15.68 483.468 15.68C481.974 15.68 480.841 15.9733 480.068 16.56C479.294 17.1467 478.908 17.92 478.908 18.88C478.908 20.3733 479.894 21.3333 481.868 21.76L485.508 22.52C487.214 22.8933 488.508 23.4933 489.388 24.32C490.268 25.12 490.708 26.2133 490.708 27.6C490.708 29.3867 490.001 30.8 488.588 31.84C487.174 32.8533 485.294 33.36 482.948 33.36ZM498.285 33.28C497.219 33.28 496.685 32.72 496.685 31.6V16.08H494.125C493.192 16.08 492.725 15.6533 492.725 14.8C492.725 13.9733 493.192 13.56 494.125 13.56H496.685V12.88C496.685 7.89333 499.125 5.18666 504.005 4.76L505.165 4.64C505.645 4.61333 505.992 4.72 506.205 4.96C506.419 5.2 506.525 5.49333 506.525 5.84C506.552 6.16 506.472 6.45333 506.285 6.72C506.099 6.98667 505.832 7.13333 505.485 7.16L504.565 7.24C502.939 7.37333 501.752 7.86666 501.005 8.72C500.285 9.57333 499.925 10.8267 499.925 12.48V13.56H504.245C505.179 13.56 505.645 13.9733 505.645 14.8C505.645 15.6533 505.179 16.08 504.245 16.08H499.925V31.6C499.925 32.72 499.379 33.28 498.285 33.28ZM515.846 33.36C511.179 33.36 508.846 30.7867 508.846 25.64V14.92C508.846 13.8267 509.379 13.28 510.446 13.28C511.539 13.28 512.086 13.8267 512.086 14.92V25.6C512.086 27.3333 512.432 28.6133 513.126 29.44C513.846 30.2667 514.966 30.68 516.486 30.68C518.139 30.68 519.486 30.1333 520.526 29.04C521.566 27.92 522.086 26.44 522.086 24.6V14.92C522.086 13.8267 522.632 13.28 523.726 13.28C524.792 13.28 525.326 13.8267 525.326 14.92V31.6C525.326 32.72 524.806 33.28 523.766 33.28C522.699 33.28 522.166 32.72 522.166 31.6V29.72C521.552 30.8933 520.686 31.8 519.566 32.44C518.472 33.0533 517.232 33.36 515.846 33.36ZM537.308 33.36C535.388 33.36 533.921 32.7867 532.908 31.64C531.894 30.4667 531.388 28.7733 531.388 26.56V6.16C531.388 5.06667 531.921 4.52 532.988 4.52C534.081 4.52 534.628 5.06667 534.628 6.16V26.32C534.628 29.1733 535.761 30.6 538.028 30.6C538.268 30.6 538.481 30.5867 538.668 30.56C538.854 30.5333 539.041 30.52 539.228 30.52C539.521 30.4933 539.721 30.56 539.828 30.72C539.961 30.88 540.028 31.2 540.028 31.68C540.028 32.5867 539.574 33.1067 538.668 33.24C538.454 33.2933 538.228 33.32 537.988 33.32C537.748 33.3467 537.521 33.36 537.308 33.36ZM549.144 33.36C547.224 33.36 545.757 32.7867 544.744 31.64C543.73 30.4667 543.224 28.7733 543.224 26.56V6.16C543.224 5.06667 543.757 4.52 544.824 4.52C545.917 4.52 546.464 5.06667 546.464 6.16V26.32C546.464 29.1733 547.597 30.6 549.864 30.6C550.104 30.6 550.317 30.5867 550.504 30.56C550.69 30.5333 550.877 30.52 551.064 30.52C551.357 30.4933 551.557 30.56 551.664 30.72C551.797 30.88 551.864 31.2 551.864 31.68C551.864 32.5867 551.41 33.1067 550.504 33.24C550.29 33.2933 550.064 33.32 549.824 33.32C549.584 33.3467 549.357 33.36 549.144 33.36ZM558.95 40.48C558.337 40.48 557.923 40.24 557.71 39.76C557.497 39.3067 557.51 38.7867 557.75 38.2L560.19 32.68L552.83 15.56C552.563 14.9467 552.55 14.4133 552.79 13.96C553.057 13.5067 553.55 13.28 554.27 13.28C555.017 13.28 555.563 13.7067 555.91 14.56L561.95 29.32L568.03 14.56C568.243 14.08 568.47 13.7467 568.71 13.56C568.95 13.3733 569.297 13.28 569.75 13.28C570.363 13.28 570.777 13.5067 570.99 13.96C571.203 14.4133 571.19 14.9333 570.95 15.52L560.71 39.2C560.497 39.68 560.257 40.0133 559.99 40.2C559.75 40.3867 559.403 40.48 558.95 40.48ZM587.129 33.28C586.036 33.28 585.489 32.72 585.489 31.6V14.92C585.489 13.8267 586.009 13.28 587.049 13.28C588.116 13.28 588.649 13.8267 588.649 14.92V17.04C589.183 15.8133 590.009 14.88 591.129 14.24C592.249 13.5733 593.583 13.2133 595.129 13.16C595.983 13.08 596.436 13.5067 596.489 14.44C596.569 15.3733 596.089 15.8933 595.049 16L594.409 16.08C592.569 16.24 591.169 16.8267 590.209 17.84C589.249 18.8267 588.769 20.1867 588.769 21.92V31.6C588.769 32.72 588.223 33.28 587.129 33.28ZM608.351 33.36C605.284 33.36 602.857 32.4667 601.071 30.68C599.284 28.8667 598.391 26.4133 598.391 23.32C598.391 21.32 598.791 19.56 599.591 18.04C600.391 16.4933 601.484 15.3067 602.871 14.48C604.284 13.6267 605.911 13.2 607.751 13.2C610.391 13.2 612.457 14.0533 613.951 15.76C615.444 17.44 616.191 19.76 616.191 22.72C616.191 23.5467 615.724 23.96 614.791 23.96H601.551C601.657 26.1733 602.297 27.8667 603.471 29.04C604.644 30.1867 606.271 30.76 608.351 30.76C609.231 30.76 610.124 30.6533 611.031 30.44C611.937 30.2 612.817 29.7867 613.671 29.2C614.284 28.8 614.791 28.72 615.191 28.96C615.617 29.2 615.831 29.5733 615.831 30.08C615.857 30.56 615.591 30.9867 615.031 31.36C614.151 32 613.097 32.4933 611.871 32.84C610.671 33.1867 609.497 33.36 608.351 33.36ZM607.831 15.6C605.991 15.6 604.537 16.1733 603.471 17.32C602.404 18.4667 601.777 19.9733 601.591 21.84H613.391C613.311 19.8667 612.791 18.3333 611.831 17.24C610.897 16.1467 609.564 15.6 607.831 15.6ZM629.48 40.56C628.067 40.56 626.68 40.3867 625.32 40.04C623.987 39.72 622.773 39.2 621.68 38.48C621.28 38.24 621.04 37.9467 620.96 37.6C620.907 37.28 620.96 36.96 621.12 36.64C621.28 36.3467 621.507 36.1333 621.8 36C622.12 35.8667 622.453 35.8933 622.8 36.08C623.973 36.8 625.093 37.2933 626.16 37.56C627.227 37.8267 628.28 37.96 629.32 37.96C633.16 37.96 635.08 35.9867 635.08 32.04V28.6C634.52 29.8267 633.64 30.8 632.44 31.52C631.267 32.2133 629.92 32.56 628.4 32.56C626.613 32.56 625.067 32.1467 623.76 31.32C622.453 30.4933 621.44 29.36 620.72 27.92C620.027 26.4533 619.68 24.76 619.68 22.84C619.68 20.92 620.027 19.24 620.72 17.8C621.44 16.3333 622.453 15.2 623.76 14.4C625.067 13.6 626.613 13.2 628.4 13.2C629.92 13.2 631.267 13.5333 632.44 14.2C633.613 14.8667 634.48 15.8 635.04 17V14.92C635.04 13.8267 635.573 13.28 636.64 13.28C637.707 13.28 638.24 13.8267 638.24 14.92V31.6C638.24 34.5867 637.493 36.8267 636 38.32C634.533 39.8133 632.36 40.56 629.48 40.56ZM629 29.92C630.867 29.92 632.347 29.28 633.44 28C634.533 26.72 635.08 25 635.08 22.84C635.08 20.68 634.533 18.9733 633.44 17.72C632.347 16.44 630.867 15.8 629 15.8C627.16 15.8 625.693 16.44 624.6 17.72C623.507 18.9733 622.96 20.68 622.96 22.84C622.96 25 623.507 26.72 624.6 28C625.693 29.28 627.16 29.92 629 29.92ZM645.917 8.88C644.504 8.88 643.797 8.21333 643.797 6.88C643.797 5.57333 644.504 4.92 645.917 4.92C647.331 4.92 648.037 5.57333 648.037 6.88C648.037 8.21333 647.331 8.88 645.917 8.88ZM645.917 33.2C644.851 33.2 644.317 32.6133 644.317 31.44V15.08C644.317 13.9333 644.851 13.36 645.917 13.36C647.011 13.36 647.557 13.9333 647.557 15.08V31.44C647.557 32.6133 647.011 33.2 645.917 33.2ZM660.174 33.36C658.974 33.36 657.761 33.2133 656.534 32.92C655.334 32.6 654.214 32.0933 653.174 31.4C652.694 31.1067 652.454 30.7333 652.454 30.28C652.481 29.8 652.668 29.4267 653.014 29.16C653.361 28.8933 653.801 28.8933 654.334 29.16C655.374 29.8 656.374 30.2533 657.334 30.52C658.321 30.76 659.294 30.88 660.254 30.88C661.774 30.88 662.921 30.6 663.694 30.04C664.468 29.48 664.854 28.72 664.854 27.76C664.854 27.0133 664.601 26.4267 664.094 26C663.588 25.5467 662.788 25.2 661.694 24.96L658.054 24.16C654.748 23.44 653.094 21.7333 653.094 19.04C653.094 17.28 653.788 15.8667 655.174 14.8C656.588 13.7333 658.428 13.2 660.694 13.2C661.841 13.2 662.948 13.36 664.014 13.68C665.081 13.9733 666.041 14.4533 666.894 15.12C667.348 15.44 667.548 15.8267 667.494 16.28C667.441 16.7333 667.228 17.0933 666.854 17.36C666.508 17.6 666.081 17.56 665.574 17.24C664.774 16.7067 663.961 16.32 663.134 16.08C662.308 15.8133 661.494 15.68 660.694 15.68C659.201 15.68 658.068 15.9733 657.294 16.56C656.521 17.1467 656.134 17.92 656.134 18.88C656.134 20.3733 657.121 21.3333 659.094 21.76L662.734 22.52C664.441 22.8933 665.734 23.4933 666.614 24.32C667.494 25.12 667.934 26.2133 667.934 27.6C667.934 29.3867 667.228 30.8 665.814 31.84C664.401 32.8533 662.521 33.36 660.174 33.36ZM680.477 33.36C678.183 33.36 676.463 32.76 675.317 31.56C674.17 30.3333 673.597 28.5733 673.597 26.28V16.08H670.917C669.983 16.08 669.517 15.6533 669.517 14.8C669.517 13.9733 669.983 13.56 670.917 13.56H673.597V8.96C673.597 7.86667 674.143 7.32 675.237 7.32C676.303 7.32 676.837 7.86667 676.837 8.96V13.56H681.877C682.81 13.56 683.277 13.9733 683.277 14.8C683.277 15.6533 682.81 16.08 681.877 16.08H676.837V25.96C676.837 27.48 677.157 28.64 677.797 29.44C678.437 30.2133 679.477 30.6 680.917 30.6C681.423 30.6 681.85 30.5467 682.197 30.44C682.543 30.3333 682.85 30.28 683.117 30.28C683.357 30.2533 683.557 30.3333 683.717 30.52C683.877 30.7067 683.957 31.0267 683.957 31.48C683.957 31.8 683.89 32.0933 683.757 32.36C683.65 32.6267 683.45 32.8133 683.157 32.92C682.837 33.0267 682.41 33.12 681.877 33.2C681.37 33.3067 680.903 33.36 680.477 33.36ZM695.226 33.36C692.159 33.36 689.732 32.4667 687.946 30.68C686.159 28.8667 685.266 26.4133 685.266 23.32C685.266 21.32 685.666 19.56 686.466 18.04C687.266 16.4933 688.359 15.3067 689.746 14.48C691.159 13.6267 692.786 13.2 694.626 13.2C697.266 13.2 699.332 14.0533 700.826 15.76C702.319 17.44 703.066 19.76 703.066 22.72C703.066 23.5467 702.599 23.96 701.666 23.96H688.426C688.532 26.1733 689.172 27.8667 690.346 29.04C691.519 30.1867 693.146 30.76 695.226 30.76C696.106 30.76 696.999 30.6533 697.906 30.44C698.812 30.2 699.692 29.7867 700.546 29.2C701.159 28.8 701.666 28.72 702.066 28.96C702.492 29.2 702.706 29.5733 702.706 30.08C702.732 30.56 702.466 30.9867 701.906 31.36C701.026 32 699.972 32.4933 698.746 32.84C697.546 33.1867 696.372 33.36 695.226 33.36ZM694.706 15.6C692.866 15.6 691.412 16.1733 690.346 17.32C689.279 18.4667 688.652 19.9733 688.466 21.84H700.266C700.186 19.8667 699.666 18.3333 698.706 17.24C697.772 16.1467 696.439 15.6 694.706 15.6ZM709.395 33.28C708.302 33.28 707.755 32.72 707.755 31.6V14.92C707.755 13.8267 708.275 13.28 709.315 13.28C710.382 13.28 710.915 13.8267 710.915 14.92V17.04C711.448 15.8133 712.275 14.88 713.395 14.24C714.515 13.5733 715.848 13.2133 717.395 13.16C718.248 13.08 718.702 13.5067 718.755 14.44C718.835 15.3733 718.355 15.8933 717.315 16L716.675 16.08C714.835 16.24 713.435 16.8267 712.475 17.84C711.515 18.8267 711.035 20.1867 711.035 21.92V31.6C711.035 32.72 710.488 33.28 709.395 33.28ZM730.616 33.36C727.55 33.36 725.123 32.4667 723.336 30.68C721.55 28.8667 720.656 26.4133 720.656 23.32C720.656 21.32 721.056 19.56 721.856 18.04C722.656 16.4933 723.75 15.3067 725.136 14.48C726.55 13.6267 728.176 13.2 730.016 13.2C732.656 13.2 734.723 14.0533 736.216 15.76C737.71 17.44 738.456 19.76 738.456 22.72C738.456 23.5467 737.99 23.96 737.056 23.96H723.816C723.923 26.1733 724.563 27.8667 725.736 29.04C726.91 30.1867 728.536 30.76 730.616 30.76C731.496 30.76 732.39 30.6533 733.296 30.44C734.203 30.2 735.083 29.7867 735.936 29.2C736.55 28.8 737.056 28.72 737.456 28.96C737.883 29.2 738.096 29.5733 738.096 30.08C738.123 30.56 737.856 30.9867 737.296 31.36C736.416 32 735.363 32.4933 734.136 32.84C732.936 33.1867 731.763 33.36 730.616 33.36ZM730.096 15.6C728.256 15.6 726.803 16.1733 725.736 17.32C724.67 18.4667 724.043 19.9733 723.856 21.84H735.656C735.576 19.8667 735.056 18.3333 734.096 17.24C733.163 16.1467 731.83 15.6 730.096 15.6ZM750.545 33.36C748.812 33.36 747.292 32.9467 745.985 32.12C744.705 31.2933 743.705 30.1333 742.985 28.64C742.292 27.12 741.945 25.3333 741.945 23.28C741.945 21.2 742.292 19.4133 742.985 17.92C743.705 16.4 744.705 15.24 745.985 14.44C747.292 13.6133 748.812 13.2 750.545 13.2C752.065 13.2 753.399 13.5333 754.545 14.2C755.719 14.8667 756.585 15.7867 757.145 16.96V6.16C757.145 5.06667 757.692 4.52 758.785 4.52C759.852 4.52 760.385 5.06667 760.385 6.16V31.6C760.385 32.72 759.852 33.28 758.785 33.28C757.719 33.28 757.185 32.72 757.185 31.6V29.52C756.599 30.72 755.719 31.6667 754.545 32.36C753.399 33.0267 752.065 33.36 750.545 33.36ZM751.225 30.76C753.039 30.76 754.492 30.12 755.585 28.84C756.679 27.5333 757.225 25.68 757.225 23.28C757.225 20.8533 756.679 19 755.585 17.72C754.492 16.44 753.039 15.8 751.225 15.8C749.385 15.8 747.919 16.44 746.825 17.72C745.759 19 745.225 20.8533 745.225 23.28C745.225 25.68 745.759 27.5333 746.825 28.84C747.919 30.12 749.385 30.76 751.225 30.76Z" fill="black" fill-opacity="0.87"/>
<path d="M669.927 357.839H644.084V358.033H669.927V357.839Z" fill="#EBEBEB"/>
<path d="M577.324 359.945H570.543V360.139H577.324V359.945Z" fill="#EBEBEB"/>
<path d="M643.304 350.621H628.33V350.815H643.304V350.621Z" fill="#EBEBEB"/>
<path d="M393.513 351.926H359.813V352.12H393.513V351.926Z" fill="#EBEBEB"/>
<path d="M405.405 351.926H400.466V352.12H405.405V351.926Z" fill="#EBEBEB"/>
<path d="M494.559 355.205H421.463V355.399H494.559V355.205Z" fill="#EBEBEB"/>
<path d="M504.106 115.234C492.761 127.783 487.143 144.877 488.103 161.739C489.062 178.601 495.305 194.748 502.904 209.845C509.56 223.07 517.511 238.067 512.065 251.828C509.022 259.521 502.085 265.217 494.415 268.387C486.745 271.557 478.334 272.474 470.039 272.886C455.901 273.593 441.551 272.948 427.795 276.251C414.039 279.553 400.493 287.712 395.172 300.774C388.906 316.167 396.022 334.583 408.569 345.515C421.124 356.448 437.962 361.142 454.48 363.465C477.624 366.713 501.336 365.897 524.198 361.072C542.558 357.194 560.622 350.597 575.603 339.338C590.576 328.079 602.265 311.792 605.472 293.376C608.671 274.961 602.46 254.595 587.806 242.924C581.712 238.067 574.362 234.749 569.017 229.085C563.672 223.42 560.957 213.987 565.92 207.988C569.197 204.025 574.721 202.813 579.84 202.199C605.019 199.208 632.914 204.375 653.974 190.303C666.029 182.245 673.832 168.507 675.549 154.147C677.265 139.788 674.152 124.247 665.069 112.965C640.311 82.2485 534.428 81.6968 504.106 115.234Z" fill="#E5F7FF"/>
<path d="M513.949 380C597.503 380 665.237 376.062 665.237 371.204C665.237 366.346 597.503 362.408 513.949 362.408C430.395 362.408 362.661 366.346 362.661 371.204C362.661 376.062 430.395 380 513.949 380Z" fill="#E5F7FF"/>
<path d="M501.521 247.896L503.471 236.683L507.302 237.795L501.521 247.896Z" fill="#00BDD3"/>
<path d="M502.808 251.478L513.779 248.323L512.257 244.648L502.808 251.478Z" fill="#00BDD3"/>
<path d="M504.759 247.267L511.009 235.495L515.214 238.408L504.759 247.267Z" fill="#00BDD3"/>
<path d="M401.504 264.921H396.565C396.346 264.921 396.175 264.75 396.175 264.532C396.175 264.314 396.346 264.144 396.565 264.144H401.504C401.723 264.144 401.894 264.314 401.894 264.532C401.894 264.75 401.723 264.921 401.504 264.921Z" fill="#00BDD3"/>
<path d="M393.28 264.921H368.522C368.303 264.921 368.132 264.75 368.132 264.532C368.132 264.314 368.303 264.144 368.522 264.144H393.272C393.491 264.144 393.662 264.314 393.662 264.532C393.662 264.75 393.491 264.921 393.28 264.921Z" fill="#00BDD3"/>
<path d="M481.061 309.881C480.967 309.881 480.873 309.85 480.795 309.78C480.639 309.632 480.624 309.391 480.772 309.228L483.081 306.726C483.23 306.571 483.472 306.563 483.635 306.703C483.791 306.85 483.807 307.091 483.659 307.254L481.349 309.757C481.271 309.842 481.17 309.881 481.061 309.881Z" fill="#00BDD3"/>
<path d="M459.907 329.796C459.767 329.796 459.626 329.718 459.556 329.586C459.463 329.392 459.533 329.159 459.728 329.065C466.961 325.421 478.416 311.792 478.533 311.652C478.673 311.489 478.915 311.466 479.079 311.605C479.243 311.745 479.266 311.986 479.126 312.149C478.65 312.717 467.445 326.035 460.071 329.757C460.032 329.78 459.97 329.796 459.907 329.796Z" fill="#00BDD3"/>
<path d="M516.055 325.538L521.626 320.946L507.597 307.689L501.612 312.779L516.055 325.538Z" fill="#F6B69E"/>
<path d="M526.136 319.182C525.762 318.949 524.997 319.058 524.209 319.275C523.834 319.384 523.444 319.508 523.101 319.633C522.828 319.734 522.578 319.835 522.367 319.92C522.055 320.052 521.829 320.153 521.751 320.192C521.681 320.208 521.634 320.277 521.626 320.355C521.618 320.378 521.634 320.41 521.65 320.433C521.673 320.472 521.712 320.503 521.759 320.511C522.547 320.72 523.358 320.852 524.178 320.915C524.576 320.969 524.989 320.938 525.371 320.829C525.395 320.821 525.41 320.821 525.426 320.814C525.645 320.744 525.863 320.65 526.058 320.534C526.316 320.324 526.456 320.006 526.425 319.671C526.417 319.477 526.316 319.283 526.136 319.182ZM526.058 319.687C526.097 319.912 525.996 320.138 525.808 320.27C525.66 320.394 525.449 320.472 525.176 320.526C524.911 320.581 524.591 320.596 524.224 320.573C523.795 320.557 523.296 320.487 522.742 320.386C522.625 320.363 522.5 320.34 522.375 320.316C523.038 319.998 523.733 319.757 524.451 319.594C524.833 319.508 525.215 319.446 525.606 319.407C525.723 319.407 525.832 319.43 525.933 319.485C526.019 319.531 526.066 319.609 526.058 319.687Z" fill="#00BDD3"/>
<path d="M523.585 316.26C523.226 316.314 522.898 316.532 522.696 316.827C522.633 316.92 522.579 317.014 522.54 317.122C522.071 318.125 522.313 319.64 522.368 319.92C522.376 319.943 522.376 319.951 522.376 319.959C522.383 320.021 522.43 320.075 522.493 320.091C522.524 320.106 522.563 320.114 522.602 320.098C522.625 320.098 522.649 320.083 522.672 320.06C522.805 319.951 522.945 319.803 523.101 319.624C523.328 319.36 523.562 319.042 523.765 318.692C524.248 317.907 524.592 317.021 524.381 316.563C524.295 316.384 524.092 316.174 523.585 316.26ZM524.053 316.718C524.186 317.021 523.928 317.713 523.531 318.397C523.273 318.832 522.977 319.252 522.68 319.562C522.618 319.073 522.555 318.14 522.797 317.449C522.844 317.293 522.914 317.146 523 317.029C523.133 316.843 523.32 316.695 523.538 316.633L523.648 316.617C523.975 316.563 524.038 316.68 524.053 316.718Z" fill="#00BDD3"/>
<path d="M520.901 320.62L513.91 324.132C513.629 324.264 513.496 324.575 513.582 324.862L515.642 331.374C515.868 332.011 516.57 332.345 517.218 332.12C517.257 332.104 517.304 332.089 517.343 332.073C529.32 327.885 532.988 324.917 534.244 324.241C537.81 322.306 535.804 319.788 534.478 320.099C528.509 321.521 526.503 321.156 523.921 320.487C522.54 320.278 521.322 320.41 520.901 320.62Z" fill="#0E1F3D"/>
<path opacity="0.2" d="M507.597 307.697L514.705 313.967L508.713 319.057L501.612 312.786L507.597 307.697Z" fill="black"/>
<path d="M505.388 319.011L514.323 310.806L512.356 307.363L502.025 316.198L505.388 319.011Z" fill="#00BDD3"/>
<path opacity="0.5" d="M505.388 319.011L514.323 310.806L512.356 307.363L502.025 316.198L505.388 319.011Z" fill="white"/>
<path d="M510.952 308.567L509.759 309.593L507.972 311.123L506.903 312.025L503.789 314.69L503.189 315.195C503.189 315.195 490.462 308.054 483.377 301.954C478.524 297.774 478.087 296.22 477.58 296.609C470.737 301.791 450.481 319.71 439.003 329.034C438.628 329.073 438.262 329.112 437.879 329.135C431.746 329.586 426.924 328.91 423.179 327.488C423.14 322.53 427.4 310.953 427.751 309.834C427.751 309.834 444.691 293.065 472.134 278.892C472.407 278.752 472.688 278.643 472.961 278.527C473.32 278.372 473.671 278.224 474.037 278.092C475.473 277.548 476.878 277.214 478.243 277.144C479.468 277.082 480.662 277.299 481.809 277.703C482.457 277.929 483.096 278.208 483.713 278.535C484.259 278.807 484.79 279.125 485.305 279.452C486.155 279.988 486.974 280.586 487.747 281.177C489.495 282.521 502.752 299.53 509.883 307.378C509.883 307.386 509.883 307.386 509.883 307.386C510.258 307.829 510.617 308.217 510.952 308.567Z" fill="#00BDD3"/>
<g opacity="0.1">
<g opacity="0.1">
<g opacity="0.1">
<g opacity="0.1">
<path opacity="0.1" d="M510.952 308.567L509.759 309.593L507.972 311.123L506.903 312.025L503.789 314.69L503.189 315.195C503.189 315.195 490.462 308.054 483.377 301.954C478.524 297.774 478.087 296.22 477.58 296.609C470.737 301.791 450.481 319.71 439.003 329.034C438.628 329.073 438.262 329.112 437.879 329.135C431.746 329.586 426.924 328.91 423.179 327.488C423.14 322.53 427.4 310.953 427.751 309.834C427.751 309.834 444.691 293.065 472.134 278.892C472.407 278.752 472.688 278.643 472.961 278.527C473.32 278.372 473.671 278.224 474.037 278.092C475.473 277.548 476.878 277.214 478.243 277.144C479.468 277.082 480.662 277.299 481.809 277.703C482.457 277.929 483.096 278.208 483.713 278.535C484.259 278.807 484.79 279.125 485.305 279.452C486.155 279.988 486.974 280.586 487.747 281.177C489.495 282.521 502.752 299.53 509.883 307.378C509.883 307.386 509.883 307.386 509.883 307.386C510.258 307.829 510.617 308.217 510.952 308.567Z" fill="black"/>
</g>
</g>
</g>
</g>
<path d="M420.558 236.987C421.627 241.828 422.751 248.892 419.419 252.209C423.554 259.467 428.525 266.219 434.229 272.335C441.54 259.677 434.611 251.852 434.611 251.852C429.133 250.686 429.219 248.487 430.078 244.696L420.558 236.987Z" fill="#F6B69E"/>
<path d="M416.032 252.823C416.438 251.51 417.273 250.375 418.404 249.59C419.497 248.751 430.857 248.627 433.815 249.59C435.539 250.134 437.006 251.284 437.942 252.831L416.032 252.823Z" fill="#00BDD3"/>
<path d="M468.444 272.094L471.385 270.757L471.534 275.528C471.534 275.528 470.16 276.748 468.654 277.214C467.211 277.657 465.838 276.336 466.196 274.876C466.485 273.663 467.312 272.638 468.444 272.094Z" fill="#F6B69E"/>
<path d="M475.137 272.109L474.981 273.858C474.942 274.402 474.544 274.852 474.014 274.969L471.501 275.528L471.353 270.757L473.905 270.796C474.583 270.788 475.13 271.325 475.137 272.001C475.137 272.039 475.137 272.071 475.137 272.109Z" fill="#F6B69E"/>
<path d="M431.138 285.668C435.555 287.836 440.97 289.08 446.284 288.186C452.541 287.137 463.442 280.882 468.186 277.292L466.586 274.922C464.222 275.427 444.903 285.202 432.418 276.359C430.093 274.712 420.964 267.929 417.733 268.069C412.498 268.302 412.95 273.764 415.197 276.041C417.843 278.698 427.526 283.897 431.138 285.668Z" fill="#F6B69E"/>
<g opacity="0.2">
<path opacity="0.2" d="M474.982 273.857C474.935 274.394 474.545 274.852 474.015 274.969L471.518 275.528V275.536C471.518 275.536 470.145 276.756 468.646 277.222C468.49 277.269 468.334 277.3 468.186 277.3L468.178 277.307C463.434 280.897 452.541 287.145 446.284 288.194C440.97 289.08 435.555 287.844 431.138 285.668C427.526 283.897 417.827 278.698 415.197 276.041C412.95 273.764 412.498 268.309 417.733 268.069C420.956 267.929 430.093 274.712 432.418 276.359C444.325 284.79 462.443 276.29 466.15 275.046C466.157 274.992 466.165 274.93 466.181 274.875C466.329 274.269 466.602 273.71 466.992 273.228C467.367 272.754 467.866 272.358 468.428 272.086L471.338 270.765L471.37 270.757L473.898 270.788C474.569 270.78 475.123 271.324 475.123 272C475.123 272.031 475.123 272.062 475.123 272.101L474.982 273.857Z" fill="black"/>
<path opacity="0.2" d="M471.376 270.757L471.353 270.765V270.757H471.376Z" fill="black"/>
</g>
<path d="M447.501 260.632C454.125 275.17 438.762 279.32 445.8 303.159L412.404 303.959C412.63 291.185 417.187 293.928 411.179 269.91C410.672 267.874 409.821 262.038 411.998 256.724C412.849 254.657 414.355 252.901 416.329 251.836C418.794 250.507 429.656 251.549 434.611 251.875C439.979 251.129 446.518 258.814 447.501 260.632Z" fill="#00BDD3"/>
<path opacity="0.5" d="M447.501 260.632C454.125 275.17 438.762 279.32 445.8 303.159L412.404 303.959C412.63 291.185 417.187 293.928 411.179 269.91C410.672 267.874 409.821 262.038 411.998 256.724C412.849 254.657 414.355 252.901 416.329 251.836C418.794 250.507 429.656 251.549 434.611 251.875C439.979 251.129 446.518 258.814 447.501 260.632Z" fill="white"/>
<path d="M441.118 231.789C441.025 232.426 441.282 232.946 441.68 233.001C442.078 233.055 442.484 232.612 442.57 231.998C442.663 231.384 442.406 230.841 442.008 230.786C441.61 230.74 441.204 231.182 441.118 231.789Z" fill="#0E1F3D"/>
<path d="M441.828 230.802L443.357 230.592C443.357 230.584 442.436 231.625 441.828 230.802Z" fill="#0E1F3D"/>
<path d="M441.219 232.628C441.219 232.628 441.875 235.41 442.842 236.832C441.922 237.469 440.595 236.925 440.595 236.925L441.219 232.628Z" fill="#A02724"/>
<path d="M443.326 227.516C443.443 227.469 443.529 227.36 443.552 227.236C443.584 227.033 443.443 226.855 443.248 226.824C442.093 226.621 440.907 226.995 440.08 227.819C439.932 227.959 439.924 228.184 440.057 228.332C440.197 228.48 440.424 228.487 440.572 228.355C440.587 228.34 440.603 228.324 440.619 228.301C441.29 227.663 442.226 227.383 443.139 227.547C443.201 227.554 443.272 227.547 443.326 227.516Z" fill="#0E1F3D"/>
<path d="M420.909 226.761C420.277 234.337 419.848 237.523 423.093 241.929C427.978 248.557 437.466 247.687 440.345 240.445C442.952 233.933 443.552 222.643 436.608 218.587C431.661 215.665 425.278 217.289 422.337 222.208C421.509 223.591 421.018 225.153 420.909 226.761Z" fill="#F6B69E"/>
<path d="M440.517 239.987C439.94 239.505 439.503 238.868 439.253 238.137C439.23 238.06 439.276 237.974 439.362 237.943C439.44 237.92 439.526 237.966 439.55 238.052C439.776 238.681 440.15 239.233 440.634 239.676L440.517 239.987Z" fill="#0E1F3D"/>
<path d="M415.486 216.908C412.583 220.824 411.264 221.842 414.854 232.262C416.297 236.45 420.487 241.998 422.524 242.503C426.176 243.42 429.726 240.864 432.472 238.292C434.876 236.038 437.177 233.606 438.637 230.661C440.096 227.716 440.634 224.188 439.432 221.135C438.122 217.817 433.495 214.856 430.03 214.126C425.957 213.271 417.897 213.652 415.486 216.908Z" fill="#0E1F3D"/>
<path d="M438.237 231.307C438.237 231.307 439.15 232.869 437.996 234.034L438.019 231.952L438.237 231.307Z" fill="#0E1F3D"/>
<path d="M438.223 231.307C438.223 231.307 438.559 233.7 436.545 234.594L437.63 232.006L438.223 231.307Z" fill="#0E1F3D"/>
<path d="M424.826 241.617C424.826 241.617 422.61 242.62 422.93 244.788L424.545 242.495L424.826 241.617Z" fill="#0E1F3D"/>
<path d="M424.912 241.664C424.912 241.664 423.227 243.405 424.335 245.308L424.982 242.581L424.912 241.664Z" fill="#0E1F3D"/>
<path d="M441.274 228.183C442.062 227.375 442.866 226.551 443.443 225.58C444.028 224.609 444.379 223.459 444.208 222.347C443.981 220.902 442.889 219.713 441.617 218.983C440.345 218.26 438.886 217.934 437.45 217.615C436.748 217.46 435.96 217.312 435.344 217.685C434.743 218.043 434.485 218.796 434.524 219.488C434.556 220.18 434.836 220.832 435.086 221.477C436.077 224.003 436.701 226.598 437.177 229.255C437.419 230.6 437.232 231.485 438.566 230.973C439.456 230.623 440.595 228.882 441.274 228.183Z" fill="#0E1F3D"/>
<path d="M430.772 231.921C430.694 233.677 431.311 235.386 432.497 236.684C434.081 238.401 436.094 237.274 436.671 235.145C437.202 233.234 436.999 230.04 434.923 229.123C432.848 228.199 430.881 229.784 430.772 231.921Z" fill="#F6B69E"/>
<path d="M519.271 329.034L525.294 323.183L513.637 308.583L506.349 312.864L519.271 329.034Z" fill="#F6B69E"/>
<path d="M531.443 321.381C530.772 321.147 529.398 321.893 528.361 322.554C528.095 322.717 527.861 322.88 527.658 323.02L527.643 323.028C527.604 323.059 527.572 323.082 527.541 323.106C527.307 323.269 527.136 323.393 527.073 323.44C526.995 323.479 526.964 323.556 526.979 323.634C527.003 323.712 527.073 323.766 527.151 323.774C527.869 323.805 528.587 323.782 529.305 323.704C529.469 323.688 529.625 323.673 529.781 323.649C530.303 323.611 530.803 323.44 531.232 323.152C531.388 323.051 531.536 322.942 531.661 322.818C531.887 322.546 531.965 322.173 531.856 321.831C531.809 321.637 531.653 321.466 531.443 321.381ZM531.489 321.94C531.568 322.165 531.528 322.422 531.365 322.608C531.162 322.857 530.756 323.059 530.179 323.199C529.734 323.308 529.195 323.385 528.563 323.416C528.314 323.424 528.048 323.44 527.775 323.44C527.861 323.37 527.947 323.308 528.041 323.245C528.103 323.199 528.165 323.16 528.228 323.113C529.063 322.531 529.984 322.072 530.959 321.754C531.076 321.722 531.201 321.722 531.326 321.761C531.404 321.785 531.466 321.855 531.489 321.94Z" fill="#00BDD3"/>
<path d="M528.102 318.902C527.735 319.042 527.447 319.337 527.306 319.694C526.815 320.891 527.54 322.733 527.665 323.02C527.665 323.028 527.665 323.028 527.673 323.028C527.673 323.043 527.673 323.051 527.681 323.051C527.712 323.113 527.766 323.16 527.837 323.168C527.876 323.176 527.915 323.168 527.954 323.152C527.977 323.144 528.008 323.121 528.016 323.106C528.024 323.09 528.032 323.09 528.04 323.082C528.149 322.942 528.266 322.764 528.367 322.554C528.945 321.474 529.483 319.671 529.007 319.05C528.867 318.871 528.609 318.7 528.102 318.902ZM527.907 322.577C527.696 321.963 527.322 320.658 527.665 319.85C527.759 319.625 527.923 319.43 528.141 319.314L528.25 319.259C528.586 319.127 528.672 319.244 528.703 319.283C529.038 319.733 528.516 321.575 527.907 322.577Z" fill="#00BDD3"/>
<path opacity="0.2" d="M513.021 307.689L518.514 314.69L511.086 318.808L505.507 311.994L513.021 307.689Z" fill="black"/>
<path d="M412.099 301.426L411.327 304.441C411.21 304.682 411.498 304.907 411.881 304.9L446.275 304.092C446.58 304.076 446.821 303.928 446.837 303.742L445.979 300.579C446.002 300.377 445.729 300.206 445.401 300.214L412.653 301.17C412.435 301.147 412.224 301.248 412.099 301.426Z" fill="#0E1F3D"/>
<path d="M442.703 304.449L441.797 304.542C441.618 304.534 441.47 304.488 441.47 304.379L441.454 300.486C441.454 300.377 441.602 300.268 441.782 300.245L442.687 300.144C442.866 300.152 443.015 300.198 443.015 300.315L443.03 304.208C443.022 304.317 442.882 304.426 442.703 304.449Z" fill="#00BDD3"/>
<path d="M430.39 304.605L429.484 304.698C429.305 304.69 429.165 304.643 429.157 304.535L429.149 300.642C429.149 300.533 429.297 300.424 429.477 300.401L430.374 300.3C430.553 300.308 430.702 300.354 430.702 300.471L430.717 304.364C430.717 304.488 430.569 304.581 430.39 304.605Z" fill="#00BDD3"/>
<path d="M430.39 304.605L429.484 304.698C429.305 304.69 429.165 304.643 429.157 304.535L429.149 300.642C429.149 300.533 429.297 300.424 429.477 300.401L430.374 300.3C430.553 300.308 430.702 300.354 430.702 300.471L430.717 304.364C430.717 304.488 430.569 304.581 430.39 304.605Z" fill="#00BDD3"/>
<path d="M517.632 310.821L516.11 311.676L516.103 311.683L513.489 313.152L511.14 314.465L511.132 314.473L508.721 315.825V315.833L507.801 316.353C507.801 316.353 507.59 316.206 507.223 315.934C507.083 315.833 506.919 315.716 506.732 315.576C506.162 315.149 505.358 314.551 504.43 313.812C504.43 313.812 504.43 313.812 504.43 313.805C499.576 309.989 490.939 302.475 488.372 295.653C486.71 297.627 484.72 300.098 482.442 302.833C472.633 314.62 457.379 331.257 439.05 333.425C438.676 333.479 438.309 333.51 437.927 333.541C431.802 334.07 426.972 333.456 423.211 332.08C413.699 328.615 411.046 320.285 411.702 313.206V313.183C411.756 309.873 412.412 303.967 412.412 303.967L447.111 304.006C452.003 298.093 461.811 288.831 471.845 282.987C472.079 282.84 472.321 282.7 472.563 282.576C472.86 282.397 473.164 282.241 473.461 282.078C476.722 280.299 479.984 278.924 483.074 278.178C483.76 278.014 484.439 277.875 485.11 277.774C485.812 277.665 486.507 277.603 487.186 277.572V277.579C491.937 277.362 496.065 279.126 498.866 283.85L517.125 310.083L517.632 310.821Z" fill="#00BDD3"/>
<path d="M498.906 274.915L460.563 276.492L461.687 252.194L500.029 250.617L498.906 274.915Z" fill="#00BDD3"/>
<path d="M498.461 276.834L460.673 278.388C459.604 278.434 458.769 277.595 458.823 276.531L459.939 252.388C459.986 251.316 460.899 250.415 461.968 250.368L499.757 248.814C500.826 248.767 501.661 249.599 501.606 250.671L500.49 274.813C500.443 275.886 499.53 276.787 498.461 276.834Z" fill="#0E1F3D"/>
<path d="M498.906 274.915L460.563 276.492L461.687 252.194L500.029 250.617L498.906 274.915Z" fill="#00BDD3"/>
<path opacity="0.9" d="M498.906 274.915L460.563 276.492L461.687 252.194L500.029 250.617L498.906 274.915Z" fill="white"/>
<path opacity="0.1" d="M475.295 249.824L468.959 278.03L471.479 277.929L477.729 249.723L475.295 249.824Z" fill="white"/>
<path opacity="0.1" d="M479.18 249.668L472.844 277.875L477.846 277.665L484.096 249.466L479.18 249.668Z" fill="white"/>
<path d="M486.46 277.137L499.225 276.779C499.444 278.256 498.812 278.807 498 278.831L493.919 278.932L491.196 278.994L486.959 279.11L460.672 279.872L460.461 278.03L486.46 277.137Z" fill="#00BDD3"/>
<path d="M486.46 277.136L499.225 276.779C499.444 278.255 498.812 278.807 498 278.83L493.919 278.931L491.196 278.993L486.959 279.11L454.422 280.105C454.047 280.112 453.704 279.91 453.54 279.568C453.251 278.962 453.681 278.247 454.359 278.224L486.46 277.136Z" fill="#00BDD3"/>
<path opacity="0.2" d="M486.46 277.136L499.225 276.779C499.444 278.255 498.812 278.807 498 278.83L493.919 278.931L491.196 278.993L486.959 279.11L454.422 280.105C454.047 280.112 453.704 279.91 453.54 279.568C453.251 278.962 453.681 278.247 454.359 278.224L486.46 277.136Z" fill="black"/>
<path opacity="0.2" d="M499.226 276.779L499.304 277.292C499.421 278.084 498.812 278.807 498.001 278.83L493.92 278.931L486.343 279.203L486.468 277.136L499.226 276.779Z" fill="black"/>
<path opacity="0.2" d="M433.105 261.347C433.105 261.347 431.302 265.007 436.507 274.673L438.684 278.613C439.401 279.911 444.177 277.261 445.597 274.829C445.597 274.829 436.475 269.374 433.105 261.347Z" fill="black"/>
<path d="M477.244 272.613L480.872 271.549L480.287 277.136C480.287 277.136 475.223 280.508 473.467 277.283L474.17 275.481C474.716 274.113 475.839 273.064 477.244 272.613Z" fill="#F6B69E"/>
<path d="M485.039 273.748L484.586 275.761C484.454 276.382 483.923 276.841 483.283 276.895L480.264 277.128L480.849 271.542L483.814 272.008C484.602 272.109 485.164 272.831 485.055 273.616C485.055 273.663 485.047 273.702 485.039 273.748Z" fill="#F6B69E"/>
<path d="M447.032 282.063C449.56 285.481 453.118 288.333 457.308 289.149C462.24 290.113 471.728 283.166 476.175 278.667C475.949 276.771 476.082 275.745 474.178 275.481C474.178 275.481 469.286 279.055 460.047 281.2C457.067 281.892 455.077 278.853 452.471 274.432C451.175 272.225 446.978 263.188 445.394 261.176C442.858 257.943 435.624 260.259 438.496 268.037C439.705 271.308 444.964 279.265 447.032 282.063Z" fill="#F6B69E"/>
<path d="M444.333 255.885C449.467 260.578 451.964 268.877 451.964 268.877L439.979 276.15C439.979 276.15 431.216 263.904 432.777 259.638C434.01 256.327 436.296 254.152 439.3 253.965C441.165 253.856 442.96 254.626 444.333 255.885Z" fill="#00BDD3"/>
<path d="M416.852 305.079L415.947 305.102C415.767 305.079 415.627 305.017 415.635 304.9L415.962 301.023C415.978 300.906 416.126 300.813 416.306 300.805L417.211 300.782C417.39 300.805 417.531 300.875 417.523 300.984L417.195 304.869C417.187 304.978 417.031 305.094 416.852 305.079Z" fill="#00BDD3"/>
<path d="M506.326 318.001L517.999 312.189L517 308.055L503.688 314.108L506.326 318.001Z" fill="#00BDD3"/>
<path opacity="0.5" d="M506.326 318.001L517.999 312.189L517 308.055L503.688 314.108L506.326 318.001Z" fill="white"/>
<path d="M524.826 322.546L516.773 324.979C516.453 325.064 516.25 325.367 516.289 325.693L517.257 332.966C517.382 333.681 518.061 334.171 518.779 334.047C518.825 334.039 518.872 334.031 518.919 334.015C532.371 331.785 536.811 329.33 538.254 328.84C542.382 327.45 540.736 324.411 539.269 324.505C532.683 324.909 530.631 324.155 528.017 322.974C526.62 322.484 525.309 322.407 524.826 322.546Z" fill="#0E1F3D"/>
<path d="M416.547 226.668C414.128 227.049 411.733 225.199 410.976 222.884C410.219 220.568 410.843 217.981 412.084 215.875C412.997 214.321 418.982 210.638 421.205 214.787C425.622 223.047 416.547 226.668 416.547 226.668Z" fill="#0E1F3D"/>
<path d="M498.562 258.946L474.958 259.948L475.068 257.617L498.671 256.615L498.562 258.946Z" fill="#00BDD3"/>
<g opacity="0.7">
<path opacity="0.7" d="M498.562 258.946L474.958 259.948L475.068 257.617L498.671 256.615L498.562 258.946Z" fill="white"/>
</g>
<path d="M498.422 262.186L474.818 263.181L474.92 260.85L498.523 259.855L498.422 262.186Z" fill="#00BDD3"/>
<g opacity="0.7">
<path opacity="0.7" d="M498.422 262.186L474.818 263.181L474.92 260.85L498.523 259.855L498.422 262.186Z" fill="white"/>
</g>
<path d="M498.274 265.419L474.67 266.421L474.78 264.09L498.383 263.087L498.274 265.419Z" fill="#00BDD3"/>
<g opacity="0.7">
<path opacity="0.7" d="M498.274 265.419L474.67 266.421L474.78 264.09L498.383 263.087L498.274 265.419Z" fill="white"/>
</g>
<path d="M498.126 268.659L474.522 269.654L474.632 267.323L498.235 266.328L498.126 268.659Z" fill="#00BDD3"/>
<g opacity="0.7">
<path opacity="0.7" d="M498.126 268.659L474.522 269.654L474.632 267.323L498.235 266.328L498.126 268.659Z" fill="white"/>
</g>
<path d="M497.985 271.892L474.381 272.895L474.483 270.563L498.086 269.561L497.985 271.892Z" fill="#00BDD3"/>
<g opacity="0.7">
<path opacity="0.7" d="M497.985 271.892L474.381 272.895L474.483 270.563L498.086 269.561L497.985 271.892Z" fill="white"/>
</g>
<path d="M465.432 261.25L463.538 261.332L463.571 262.108L465.466 262.026L465.432 261.25Z" fill="#00BDD3"/>
<g opacity="0.5">
<path opacity="0.5" d="M465.432 261.25L463.538 261.332L463.571 262.108L465.466 262.026L465.432 261.25Z" fill="white"/>
</g>
<path d="M465.347 263.495L463.452 263.576L463.486 264.352L465.38 264.271L465.347 263.495Z" fill="#00BDD3"/>
<g opacity="0.5">
<path opacity="0.5" d="M465.347 263.495L463.452 263.576L463.486 264.352L465.38 264.271L465.347 263.495Z" fill="white"/>
</g>
<path d="M465.251 265.733L463.357 265.814L463.39 266.591L465.285 266.509L465.251 265.733Z" fill="#00BDD3"/>
<g opacity="0.5">
<path opacity="0.5" d="M465.251 265.733L463.357 265.814L463.39 266.591L465.285 266.509L465.251 265.733Z" fill="white"/>
</g>
<path d="M465.166 267.979L463.272 268.061L463.305 268.837L465.2 268.755L465.166 267.979Z" fill="#00BDD3"/>
<g opacity="0.5">
<path opacity="0.5" d="M465.166 267.979L463.272 268.061L463.305 268.837L465.2 268.755L465.166 267.979Z" fill="white"/>
</g>
<path d="M465.073 270.217L463.179 270.298L463.212 271.075L465.106 270.993L465.073 270.217Z" fill="#00BDD3"/>
<g opacity="0.5">
<path opacity="0.5" d="M463.208 271.084L463.278 270.299L465.166 270.221L465.096 270.998L463.208 271.084Z" fill="white"/>
</g>
<path d="M464.982 272.456L463.088 272.536L463.121 273.312L465.015 273.233L464.982 272.456Z" fill="#00BDD3"/>
<g opacity="0.5">
<path opacity="0.5" d="M464.982 272.456L463.088 272.536L463.121 273.312L465.015 273.233L464.982 272.456Z" fill="white"/>
</g>
<path d="M467.397 259.109L463.48 260.562L463.519 259.537L465.689 259.187L463.543 259.039L463.582 258.014L467.397 259.109Z" fill="#00BDD3"/>
<path d="M491.313 255.402L474.958 256.094L475.037 254.478L491.391 253.786L491.313 255.402Z" fill="#00BDD3"/>
<g opacity="0.7">
<path opacity="0.7" d="M491.313 255.402L474.958 256.094L475.037 254.478L491.391 253.786L491.313 255.402Z" fill="white"/>
</g>
<path d="M469.247 256.242L466.852 256.343L467.819 255.729L468.084 255.977L468.373 255.721L469.247 256.242Z" fill="#00BDD3"/>
<path d="M467.725 255.658L466.758 256.272L466.828 254.85L467.725 255.658Z" fill="#00BDD3"/>
<path d="M469.403 254.804L469.325 256.156L468.443 255.643L469.403 254.804Z" fill="#00BDD3"/>
<path d="M468.118 255.397L468.064 255.454L468.07 255.459L468.124 255.403L468.118 255.397Z" fill="white"/>
<path d="M468.072 255.42L468.066 255.425L468.119 255.482L468.125 255.476L468.072 255.42Z" fill="white"/>
<path d="M469.402 254.671L468.372 255.604L468.083 255.852L467.818 255.612L466.921 254.803L466.851 254.734L469.402 254.671Z" fill="#00BDD3"/>
<path d="M465.44 254.921L463.546 255.001L463.556 255.234L465.45 255.154L465.44 254.921Z" fill="#00BDD3"/>
<path d="M465.442 255.51L463.548 255.591L463.558 255.824L465.452 255.743L465.442 255.51Z" fill="#00BDD3"/>
<path d="M465.44 256.111L463.546 256.191L463.556 256.424L465.45 256.344L465.44 256.111Z" fill="#00BDD3"/>
<path d="M575.365 138.079H563.997C562.967 138.079 562.132 137.247 562.132 136.221C562.132 135.196 562.967 134.364 563.997 134.364H575.365C576.395 134.364 577.23 135.196 577.23 136.221C577.23 137.247 576.395 138.079 575.365 138.079Z" fill="#00BDD3"/>
<g opacity="0.7">
<path opacity="0.7" d="M575.365 138.079H563.997C562.967 138.079 562.132 137.247 562.132 136.221C562.132 135.196 562.967 134.364 563.997 134.364H575.365C576.395 134.364 577.23 135.196 577.23 136.221C577.23 137.247 576.395 138.079 575.365 138.079Z" fill="white"/>
</g>
<path d="M617.072 176.238L573.485 256.117C572.923 257.143 571.628 257.524 570.598 256.964L496.433 216.83C495.403 216.271 495.021 214.981 495.582 213.955L552.269 110.058C552.831 109.033 554.127 108.652 555.157 109.211L605.133 136.252L617.072 176.238Z" fill="#00BDD3"/>
<g opacity="0.2">
<path opacity="0.2" d="M617.072 176.238L573.485 256.117C572.923 257.143 571.628 257.524 570.598 256.964L496.433 216.83C495.403 216.271 495.021 214.981 495.582 213.955L552.269 110.058C552.831 109.033 554.127 108.652 555.157 109.211L605.133 136.252L617.072 176.238Z" fill="white"/>
</g>
<path d="M592.619 194.167L537.228 164.408L535.375 167.828L590.766 197.586L592.619 194.167Z" fill="#00BDD3"/>
<path d="M585.049 208.138L529.658 178.379L527.806 181.799L583.197 211.557L585.049 208.138Z" fill="#00BDD3"/>
<path d="M577.482 222.109L522.091 192.351L520.239 195.77L575.63 225.528L577.482 222.109Z" fill="#00BDD3"/>
<path d="M605.196 136.221L592.056 160.317C591.494 161.342 591.877 162.632 592.907 163.192L617.025 176.246L605.196 136.221Z" fill="#00BDD3"/>
<path opacity="0.7" d="M605.196 136.221L592.056 160.317C591.494 161.342 591.877 162.632 592.907 163.192L617.025 176.246L605.196 136.221Z" fill="white"/>
<path d="M628.432 173.549L584.846 253.428C584.284 254.454 582.989 254.835 581.959 254.275L507.793 214.141C506.763 213.582 506.381 212.292 506.943 211.266L563.63 107.369C564.192 106.344 565.487 105.963 566.517 106.522L616.494 133.563L628.432 173.549Z" fill="#00BDD3"/>
<g opacity="0.5">
<path opacity="0.5" d="M628.432 173.549L584.846 253.428C584.284 254.454 582.989 254.835 581.959 254.275L507.793 214.141C506.763 213.582 506.381 212.292 506.943 211.266L563.63 107.369C564.192 106.344 565.487 105.963 566.517 106.522L616.494 133.563L628.432 173.549Z" fill="white"/>
</g>
<path d="M602.504 190.683L550.069 162.516C549.25 162.081 548.235 162.384 547.791 163.192L547.533 163.666C547.096 164.482 547.4 165.492 548.212 165.935L600.647 194.102C601.466 194.537 602.48 194.234 602.925 193.426L603.182 192.952C603.627 192.136 603.323 191.118 602.504 190.683Z" fill="#00BDD3"/>
<path d="M594.935 204.654L542.5 176.486C541.681 176.051 540.667 176.354 540.222 177.162L539.964 177.636C539.527 178.452 539.832 179.463 540.643 179.905L593.078 208.073C593.897 208.508 594.911 208.205 595.356 207.397L595.614 206.923C596.058 206.107 595.754 205.097 594.935 204.654Z" fill="#00BDD3"/>
<path d="M587.366 218.625L534.932 190.458C534.113 190.023 533.098 190.326 532.653 191.134L532.396 191.608C531.959 192.424 532.263 193.434 533.075 193.877L585.509 222.044C586.329 222.479 587.343 222.176 587.788 221.368L588.045 220.894C588.49 220.078 588.186 219.068 587.366 218.625Z" fill="#00BDD3"/>
<path d="M616.565 133.532L603.417 157.628C602.855 158.654 603.237 159.944 604.267 160.503L628.386 173.557L616.565 133.532Z" fill="#00BDD3"/>
<path opacity="0.7" d="M616.565 133.532L603.417 157.628C602.855 158.654 603.237 159.944 604.267 160.503L628.386 173.557L616.565 133.532Z" fill="white"/>
<path d="M613.552 96.9111L617.219 113.128C603.331 116.928 590.869 130.611 581.904 143.549C578.369 148.654 575.373 154.583 573.134 160.853C573.134 160.853 601.138 135.623 616.58 134.147L615.846 160.954C615.846 160.954 631.857 129.896 662.959 118.528C662.951 118.52 636.906 99.8406 613.552 96.9111Z" fill="#F4E041"/>
<path d="M424.616 274.083L431.693 354.638H420.285L412.67 267.952H417.898C421.401 267.952 424.312 270.61 424.616 274.083Z" fill="#00BDD3"/>
<path opacity="0.2" d="M424.685 274.806L431.7 354.638H420.292L412.677 267.952H417.171C421.08 267.952 424.342 270.928 424.685 274.806Z" fill="black"/>
<path d="M417.203 273.197L424.358 354.638H356.443L349.374 274.2C349.077 270.843 351.738 267.952 355.124 267.952H411.445C414.449 267.952 416.946 270.229 417.203 273.197Z" fill="#00BDD3"/>
<path opacity="0.2" d="M417.28 274.083L424.357 354.638H356.442L349.466 275.256C349.123 271.332 352.229 267.952 356.185 267.952H410.554C414.058 267.952 416.976 270.61 417.28 274.083Z" fill="white"/>
<path d="M536.727 354.638H356.756L354.797 332.298H527.559C531.546 332.298 535.057 335.515 535.4 339.486L536.727 354.638Z" fill="#00BDD3"/>
<path opacity="0.2" d="M536.727 354.638H356.756L354.797 332.298H527.559C531.546 332.298 535.057 335.515 535.4 339.486L536.727 354.638Z" fill="white"/>
<path d="M544.981 363.193H354.64C352.175 363.193 350.169 361.204 350.169 358.741C350.169 356.286 352.167 354.289 354.64 354.289H544.981C547.447 354.289 549.452 356.278 549.452 358.741C549.452 361.196 547.447 363.193 544.981 363.193Z" fill="#00BDD3"/>
<path opacity="0.2" d="M544.982 363.193H434.487C432.021 363.193 430.016 361.204 430.016 358.741C430.016 356.286 432.013 354.289 434.487 354.289H544.982C547.447 354.289 549.453 356.278 549.453 358.741C549.453 361.196 547.447 363.193 544.982 363.193Z" fill="black"/>
<path d="M357.138 363.193L359.393 370.839H363.903L366.384 363.193H357.138Z" fill="#263238"/>
<path opacity="0.5" d="M357.138 363.193L359.393 370.839H363.903L366.384 363.193H357.138Z" fill="white"/>
<path d="M421.768 363.193L424.023 370.839H428.533L431.014 363.193H421.768Z" fill="#263238"/>
<path opacity="0.5" d="M421.768 363.193L424.023 370.839H428.533L431.014 363.193H421.768Z" fill="white"/>
<path d="M471.238 363.193L473.493 370.839H478.003L480.484 363.193H471.238Z" fill="#263238"/>
<path opacity="0.5" d="M471.238 363.193L473.493 370.839H478.003L480.484 363.193H471.238Z" fill="white"/>
<path d="M535.868 363.193L538.123 370.839H542.633L545.114 363.193H535.868Z" fill="#263238"/>
<path opacity="0.5" d="M535.868 363.193L538.123 370.839H542.633L545.114 363.193H535.868Z" fill="white"/>
<path d="M609.432 240.254C609.432 257.469 595.468 271.425 578.242 271.425C561.017 271.425 547.053 257.469 547.053 240.254C547.053 223.038 561.017 209.082 578.242 209.082C595.468 209.082 609.432 223.038 609.432 240.254Z" fill="#EA5924"/>
<path d="M574.212 246.733L569.102 241.626C568.532 241.056 567.627 241.056 567.057 241.626C566.488 242.195 566.488 243.099 567.057 243.669L573.176 249.783C573.745 250.352 574.665 250.352 575.235 249.783L590.713 234.329C591.282 233.76 591.282 232.855 590.713 232.286C590.143 231.717 589.238 231.717 588.668 232.286L574.212 246.733Z" fill="white"/>
</svg>
