<svg xmlns="http://www.w3.org/2000/svg" width="1024" height="380" fill="none"><path fill="#000" fill-opacity=".87" d="M275.174 33.36c-3.706 0-6.52-.973-8.44-2.92-1.92-1.973-2.88-4.84-2.88-8.6V6.2c0-1.12.547-1.68 1.64-1.68 1.094 0 1.64.56 1.64 1.68v15.48c0 5.84 2.68 8.76 8.04 8.76 5.307 0 7.96-2.92 7.96-8.76V6.2c0-1.12.56-1.68 1.68-1.68 1.067 0 1.6.56 1.6 1.68v15.64c0 3.76-.96 6.627-2.88 8.6-1.893 1.947-4.68 2.92-8.36 2.92Zm24.102 0c-1.2 0-2.414-.147-3.64-.44a11.24 11.24 0 0 1-3.36-1.52c-.48-.293-.72-.667-.72-1.12.026-.48.213-.853.56-1.12.346-.267.786-.267 1.32 0 1.04.64 2.04 1.093 3 1.36.986.24 1.96.36 2.92.36 1.52 0 2.666-.28 3.44-.84.773-.56 1.16-1.32 1.16-2.28 0-.747-.254-1.333-.76-1.76-.507-.453-1.307-.8-2.4-1.04l-3.64-.8c-3.307-.72-4.96-2.427-4.96-5.12 0-1.76.693-3.173 2.08-4.24 1.413-1.067 3.253-1.6 5.52-1.6 1.146 0 2.253.16 3.32.48a8.14 8.14 0 0 1 2.88 1.44c.453.32.653.707.6 1.16a1.49 1.49 0 0 1-.64 1.08c-.347.24-.774.2-1.28-.12a8.858 8.858 0 0 0-2.44-1.16 7.919 7.919 0 0 0-2.44-.4c-1.494 0-2.627.293-3.4.88-.774.587-1.16 1.36-1.16 2.32 0 1.493.986 2.453 2.96 2.88l3.64.76c1.706.373 3 .973 3.88 1.8.88.8 1.32 1.893 1.32 3.28 0 1.787-.707 3.2-2.12 4.24-1.414 1.013-3.294 1.52-5.64 1.52Zm21.458 0c-3.067 0-5.494-.893-7.28-2.68-1.787-1.813-2.68-4.267-2.68-7.36 0-2 .4-3.76 1.2-5.28.8-1.547 1.893-2.733 3.28-3.56 1.413-.853 3.04-1.28 4.88-1.28 2.64 0 4.706.853 6.2 2.56 1.493 1.68 2.24 4 2.24 6.96 0 .827-.467 1.24-1.4 1.24h-13.24c.106 2.213.746 3.907 1.92 5.08 1.173 1.147 2.8 1.72 4.88 1.72.88 0 1.773-.107 2.68-.32.906-.24 1.786-.653 2.64-1.24.613-.4 1.12-.48 1.52-.24.426.24.64.613.64 1.12.026.48-.24.907-.8 1.28-.88.64-1.934 1.133-3.16 1.48-1.2.347-2.374.52-3.52.52Zm-.52-17.76c-1.84 0-3.294.573-4.36 1.72-1.067 1.147-1.694 2.653-1.88 4.52h11.8c-.08-1.973-.6-3.507-1.56-4.6-.934-1.093-2.267-1.64-4-1.64Zm14.689 17.68c-1.094 0-1.64-.56-1.64-1.68V14.92c0-1.093.52-1.64 1.56-1.64 1.066 0 1.6.547 1.6 1.64v2.12c.533-1.227 1.36-2.16 2.48-2.8 1.12-.667 2.453-1.027 4-1.08.853-.08 1.306.347 1.36 1.28.08.933-.4 1.453-1.44 1.56l-.64.08c-1.84.16-3.24.747-4.2 1.76-.96.987-1.44 2.347-1.44 4.08v9.68c0 1.12-.547 1.68-1.64 1.68Zm29.568.08c-1.2 0-2.413-.147-3.64-.44a11.24 11.24 0 0 1-3.36-1.52c-.48-.293-.72-.667-.72-1.12.027-.48.213-.853.56-1.12.347-.267.787-.267 1.32 0 1.04.64 2.04 1.093 3 1.36.987.24 1.96.36 2.92.36 1.52 0 2.667-.28 3.44-.84.773-.56 1.16-1.32 1.16-2.28 0-.747-.253-1.333-.76-1.76-.507-.453-1.307-.8-2.4-1.04l-3.64-.8c-3.307-.72-4.96-2.427-4.96-5.12 0-1.76.693-3.173 2.08-4.24 1.413-1.067 3.253-1.6 5.52-1.6 1.147 0 2.253.16 3.32.48a8.123 8.123 0 0 1 2.88 1.44c.453.32.653.707.6 1.16a1.488 1.488 0 0 1-.64 1.08c-.347.24-.773.2-1.28-.12a8.845 8.845 0 0 0-2.44-1.16 7.919 7.919 0 0 0-2.44-.4c-1.493 0-2.627.293-3.4.88-.773.587-1.16 1.36-1.16 2.32 0 1.493.987 2.453 2.96 2.88l3.64.76c1.707.373 3 .973 3.88 1.8.88.8 1.32 1.893 1.32 3.28 0 1.787-.707 3.2-2.12 4.24-1.413 1.013-3.293 1.52-5.64 1.52Zm19.578 0c-4.667 0-7-2.573-7-7.72V14.92c0-1.093.533-1.64 1.6-1.64 1.093 0 1.64.547 1.64 1.64V25.6c0 1.733.347 3.013 1.04 3.84.72.827 1.84 1.24 3.36 1.24 1.653 0 3-.547 4.04-1.64 1.04-1.12 1.56-2.6 1.56-4.44v-9.68c0-1.093.547-1.64 1.64-1.64 1.067 0 1.6.547 1.6 1.64V31.6c0 1.12-.52 1.68-1.56 1.68-1.067 0-1.6-.56-1.6-1.68v-1.88a6.559 6.559 0 0 1-2.6 2.72c-1.093.613-2.333.92-3.72.92Zm23.782 0c-1.947 0-3.627-.413-5.04-1.24-1.414-.853-2.507-2.04-3.28-3.56-.747-1.547-1.12-3.347-1.12-5.4 0-3.093.84-5.52 2.52-7.28 1.68-1.787 3.986-2.68 6.92-2.68.96 0 1.96.16 3 .48a7.84 7.84 0 0 1 2.84 1.48c.453.32.64.72.56 1.2-.054.48-.28.84-.68 1.08-.374.24-.814.187-1.32-.16-.72-.533-1.44-.907-2.16-1.12a6.922 6.922 0 0 0-2.04-.32c-2.027 0-3.587.64-4.68 1.92-1.094 1.253-1.64 3.067-1.64 5.44 0 2.32.546 4.16 1.64 5.52 1.093 1.333 2.653 2 4.68 2 .666 0 1.346-.107 2.04-.32.72-.213 1.44-.587 2.16-1.12.506-.347.946-.387 1.32-.12.373.24.573.6.6 1.08.053.48-.134.867-.56 1.16a8.451 8.451 0 0 1-2.8 1.52c-1.014.293-2 .44-2.96.44Zm18.125 0c-1.947 0-3.627-.413-5.04-1.24-1.414-.853-2.507-2.04-3.28-3.56-.747-1.547-1.12-3.347-1.12-5.4 0-3.093.84-5.52 2.52-7.28 1.68-1.787 3.986-2.68 6.92-2.68.96 0 1.96.16 3 .48a7.84 7.84 0 0 1 2.84 1.48c.453.32.64.72.56 1.2-.054.48-.28.84-.68 1.08-.374.24-.814.187-1.32-.16-.72-.533-1.44-.907-2.16-1.12a6.922 6.922 0 0 0-2.04-.32c-2.027 0-3.587.64-4.68 1.92-1.094 1.253-1.64 3.067-1.64 5.44 0 2.32.546 4.16 1.64 5.52 1.093 1.333 2.653 2 4.68 2 .666 0 1.346-.107 2.04-.32.72-.213 1.44-.587 2.16-1.12.506-.347.946-.387 1.32-.12.373.24.573.6.6 1.08.053.48-.134.867-.56 1.16a8.451 8.451 0 0 1-2.8 1.52c-1.014.293-2 .44-2.96.44Zm18.645 0c-3.067 0-5.494-.893-7.28-2.68-1.787-1.813-2.68-4.267-2.68-7.36 0-2 .4-3.76 1.2-5.28.8-1.547 1.893-2.733 3.28-3.56 1.413-.853 3.04-1.28 4.88-1.28 2.64 0 4.706.853 6.2 2.56 1.493 1.68 2.24 4 2.24 6.96 0 .827-.467 1.24-1.4 1.24h-13.24c.106 2.213.746 3.907 1.92 5.08 1.173 1.147 2.8 1.72 4.88 1.72.88 0 1.773-.107 2.68-.32.906-.24 1.786-.653 2.64-1.24.613-.4 1.12-.48 1.52-.24.426.24.64.613.64 1.12.026.48-.24.907-.8 1.28-.88.64-1.934 1.133-3.16 1.48-1.2.347-2.374.52-3.52.52Zm-.52-17.76c-1.84 0-3.294.573-4.36 1.72-1.067 1.147-1.694 2.653-1.88 4.52h11.8c-.08-1.973-.6-3.507-1.56-4.6-.934-1.093-2.267-1.64-4-1.64Zm19.609 17.76c-1.2 0-2.413-.147-3.64-.44a11.24 11.24 0 0 1-3.36-1.52c-.48-.293-.72-.667-.72-1.12.027-.48.213-.853.56-1.12.347-.267.787-.267 1.32 0 1.04.64 2.04 1.093 3 1.36.987.24 1.96.36 2.92.36 1.52 0 2.667-.28 3.44-.84.773-.56 1.16-1.32 1.16-2.28 0-.747-.253-1.333-.76-1.76-.507-.453-1.307-.8-2.4-1.04l-3.64-.8c-3.307-.72-4.96-2.427-4.96-5.12 0-1.76.693-3.173 2.08-4.24 1.413-1.067 3.253-1.6 5.52-1.6 1.147 0 2.253.16 3.32.48a8.123 8.123 0 0 1 2.88 1.44c.453.32.653.707.6 1.16a1.488 1.488 0 0 1-.64 1.08c-.347.24-.773.2-1.28-.12a8.845 8.845 0 0 0-2.44-1.16 7.919 7.919 0 0 0-2.44-.4c-1.493 0-2.627.293-3.4.88-.773.587-1.16 1.36-1.16 2.32 0 1.493.987 2.453 2.96 2.88l3.64.76c1.707.373 3 .973 3.88 1.8.88.8 1.32 1.893 1.32 3.28 0 1.787-.707 3.2-2.12 4.24-1.413 1.013-3.293 1.52-5.64 1.52Zm19.258 0c-1.2 0-2.414-.147-3.64-.44a11.24 11.24 0 0 1-3.36-1.52c-.48-.293-.72-.667-.72-1.12.026-.48.213-.853.56-1.12.346-.267.786-.267 1.32 0 1.04.64 2.04 1.093 3 1.36.986.24 1.96.36 2.92.36 1.52 0 2.666-.28 3.44-.84.773-.56 1.16-1.32 1.16-2.28 0-.747-.254-1.333-.76-1.76-.507-.453-1.307-.8-2.4-1.04l-3.64-.8c-3.307-.72-4.96-2.427-4.96-5.12 0-1.76.693-3.173 2.08-4.24 1.413-1.067 3.253-1.6 5.52-1.6 1.146 0 2.253.16 3.32.48a8.14 8.14 0 0 1 2.88 1.44c.453.32.653.707.6 1.16a1.49 1.49 0 0 1-.64 1.08c-.347.24-.774.2-1.28-.12a8.858 8.858 0 0 0-2.44-1.16 7.919 7.919 0 0 0-2.44-.4c-1.494 0-2.627.293-3.4.88-.774.587-1.16 1.36-1.16 2.32 0 1.493.986 2.453 2.96 2.88l3.64.76c1.706.373 3 .973 3.88 1.8.88.8 1.32 1.893 1.32 3.28 0 1.787-.707 3.2-2.12 4.24-1.414 1.013-3.294 1.52-5.64 1.52Zm15.337-.08c-1.066 0-1.6-.56-1.6-1.68V16.08h-2.56c-.933 0-1.4-.427-1.4-1.28 0-.827.467-1.24 1.4-1.24h2.56v-.68c0-4.987 2.44-7.693 7.32-8.12l1.16-.12c.48-.027.827.08 1.04.32.214.24.32.533.32.88a1.3 1.3 0 0 1-.24.88c-.186.267-.453.413-.8.44l-.92.08c-1.626.133-2.813.627-3.56 1.48-.72.853-1.08 2.107-1.08 3.76v1.08h4.32c.934 0 1.4.413 1.4 1.24 0 .853-.466 1.28-1.4 1.28h-4.32V31.6c0 1.12-.546 1.68-1.64 1.68Zm17.561.08c-4.667 0-7-2.573-7-7.72V14.92c0-1.093.533-1.64 1.6-1.64 1.093 0 1.64.547 1.64 1.64V25.6c0 1.733.346 3.013 1.04 3.84.72.827 1.84 1.24 3.36 1.24 1.653 0 3-.547 4.04-1.64 1.04-1.12 1.56-2.6 1.56-4.44v-9.68c0-1.093.546-1.64 1.64-1.64 1.066 0 1.6.547 1.6 1.64V31.6c0 1.12-.52 1.68-1.56 1.68-1.067 0-1.6-.56-1.6-1.68v-1.88c-.614 1.173-1.48 2.08-2.6 2.72-1.094.613-2.334.92-3.72.92Zm21.462 0c-1.92 0-3.387-.573-4.4-1.72-1.014-1.173-1.52-2.867-1.52-5.08V6.16c0-1.093.533-1.64 1.6-1.64 1.093 0 1.64.547 1.64 1.64v20.16c0 2.853 1.133 4.28 3.4 4.28.24 0 .453-.013.64-.04a3.94 3.94 0 0 1 .56-.04c.293-.027.493.04.6.2.133.16.2.48.2.96 0 .907-.454 1.427-1.36 1.56-.214.053-.44.08-.68.08-.24.027-.467.04-.68.04Zm11.836 0c-1.92 0-3.387-.573-4.4-1.72-1.014-1.173-1.52-2.867-1.52-5.08V6.16c0-1.093.533-1.64 1.6-1.64 1.093 0 1.64.547 1.64 1.64v20.16c0 2.853 1.133 4.28 3.4 4.28.24 0 .453-.013.64-.04a3.94 3.94 0 0 1 .56-.04c.293-.027.493.04.6.2.133.16.2.48.2.96 0 .907-.454 1.427-1.36 1.56-.214.053-.44.08-.68.08-.24.027-.467.04-.68.04Zm9.806 7.12c-.613 0-1.027-.24-1.24-.72-.213-.453-.2-.973.04-1.56l2.44-5.52-7.36-17.12c-.267-.613-.28-1.147-.04-1.6.267-.453.76-.68 1.48-.68.747 0 1.293.427 1.64 1.28l6.04 14.76 6.08-14.76c.213-.48.44-.813.68-1 .24-.187.587-.28 1.04-.28.613 0 1.027.227 1.24.68.213.453.2.973-.04 1.56L560.71 39.2c-.213.48-.453.813-.72 1-.24.187-.587.28-1.04.28Zm28.179-7.2c-1.093 0-1.64-.56-1.64-1.68V14.92c0-1.093.52-1.64 1.56-1.64 1.067 0 1.6.547 1.6 1.64v2.12c.534-1.227 1.36-2.16 2.48-2.8 1.12-.667 2.454-1.027 4-1.08.854-.08 1.307.347 1.36 1.28.08.933-.4 1.453-1.44 1.56l-.64.08c-1.84.16-3.24.747-4.2 1.76-.96.987-1.44 2.347-1.44 4.08v9.68c0 1.12-.546 1.68-1.64 1.68Zm21.222.08c-3.067 0-5.494-.893-7.28-2.68-1.787-1.813-2.68-4.267-2.68-7.36 0-2 .4-3.76 1.2-5.28.8-1.547 1.893-2.733 3.28-3.56 1.413-.853 3.04-1.28 4.88-1.28 2.64 0 4.706.853 6.2 2.56 1.493 1.68 2.24 4 2.24 6.96 0 .827-.467 1.24-1.4 1.24h-13.24c.106 2.213.746 3.907 1.92 5.08 1.173 1.147 2.8 1.72 4.88 1.72.88 0 1.773-.107 2.68-.32.906-.24 1.786-.653 2.64-1.24.613-.4 1.12-.48 1.52-.24.426.24.64.613.64 1.12.026.48-.24.907-.8 1.28-.88.64-1.934 1.133-3.16 1.48-1.2.347-2.374.52-3.52.52Zm-.52-17.76c-1.84 0-3.294.573-4.36 1.72-1.067 1.147-1.694 2.653-1.88 4.52h11.8c-.08-1.973-.6-3.507-1.56-4.6-.934-1.093-2.267-1.64-4-1.64Zm21.649 24.96c-1.413 0-2.8-.173-4.16-.52a11.396 11.396 0 0 1-3.64-1.56c-.4-.24-.64-.533-.72-.88-.053-.32 0-.64.16-.96.16-.293.387-.507.68-.64.32-.133.653-.107 1 .08 1.173.72 2.293 1.213 3.36 1.48 1.067.267 2.12.4 3.16.4 3.84 0 5.76-1.973 5.76-5.92V28.6c-.56 1.227-1.44 2.2-2.64 2.92-1.173.693-2.52 1.04-4.04 1.04-1.787 0-3.333-.413-4.64-1.24-1.307-.827-2.32-1.96-3.04-3.4-.693-1.467-1.04-3.16-1.04-5.08s.347-3.6 1.04-5.04c.72-1.467 1.733-2.6 3.04-3.4 1.307-.8 2.853-1.2 4.64-1.2 1.52 0 2.867.333 4.04 1s2.04 1.6 2.6 2.8v-2.08c0-1.093.533-1.64 1.6-1.64 1.067 0 1.6.547 1.6 1.64V31.6c0 2.987-.747 5.227-2.24 6.72-1.467 1.493-3.64 2.24-6.52 2.24ZM629 29.92c1.867 0 3.347-.64 4.44-1.92 1.093-1.28 1.64-3 1.64-5.16s-.547-3.867-1.64-5.12c-1.093-1.28-2.573-1.92-4.44-1.92-1.84 0-3.307.64-4.4 1.92-1.093 1.253-1.64 2.96-1.64 5.12s.547 3.88 1.64 5.16c1.093 1.28 2.56 1.92 4.4 1.92Zm16.917-21.04c-1.413 0-2.12-.667-2.12-2 0-1.307.707-1.96 2.12-1.96 1.414 0 2.12.653 2.12 1.96 0 1.333-.706 2-2.12 2Zm0 24.32c-1.066 0-1.6-.587-1.6-1.76V15.08c0-1.147.534-1.72 1.6-1.72 1.094 0 1.64.573 1.64 1.72v16.36c0 1.173-.546 1.76-1.64 1.76Zm14.257.16c-1.2 0-2.413-.147-3.64-.44a11.24 11.24 0 0 1-3.36-1.52c-.48-.293-.72-.667-.72-1.12.027-.48.214-.853.56-1.12.347-.267.787-.267 1.32 0 1.04.64 2.04 1.093 3 1.36.987.24 1.96.36 2.92.36 1.52 0 2.667-.28 3.44-.84.774-.56 1.16-1.32 1.16-2.28 0-.747-.253-1.333-.76-1.76-.506-.453-1.306-.8-2.4-1.04l-3.64-.8c-3.306-.72-4.96-2.427-4.96-5.12 0-1.76.694-3.173 2.08-4.24 1.414-1.067 3.254-1.6 5.52-1.6 1.147 0 2.254.16 3.32.48a8.123 8.123 0 0 1 2.88 1.44c.454.32.654.707.6 1.16a1.485 1.485 0 0 1-.64 1.08c-.346.24-.773.2-1.28-.12a8.845 8.845 0 0 0-2.44-1.16 7.914 7.914 0 0 0-2.44-.4c-1.493 0-2.626.293-3.4.88-.773.587-1.16 1.36-1.16 2.32 0 1.493.987 2.453 2.96 2.88l3.64.76c1.707.373 3 .973 3.88 1.8.88.8 1.32 1.893 1.32 3.28 0 1.787-.706 3.2-2.12 4.24-1.413 1.013-3.293 1.52-5.64 1.52Zm20.303 0c-2.294 0-4.014-.6-5.16-1.8-1.147-1.227-1.72-2.987-1.72-5.28v-10.2h-2.68c-.934 0-1.4-.427-1.4-1.28 0-.827.466-1.24 1.4-1.24h2.68v-4.6c0-1.093.546-1.64 1.64-1.64 1.066 0 1.6.547 1.6 1.64v4.6h5.04c.933 0 1.4.413 1.4 1.24 0 .853-.467 1.28-1.4 1.28h-5.04v9.88c0 1.52.32 2.68.96 3.48.64.773 1.68 1.16 3.12 1.16.506 0 .933-.053 1.28-.16.346-.107.653-.16.92-.16.24-.027.44.053.6.24.16.187.24.507.24.96 0 .32-.067.613-.2.88a.966.966 0 0 1-.6.56c-.32.107-.747.2-1.28.28-.507.107-.974.16-1.4.16Zm14.749 0c-3.067 0-5.494-.893-7.28-2.68-1.787-1.813-2.68-4.267-2.68-7.36 0-2 .4-3.76 1.2-5.28.8-1.547 1.893-2.733 3.28-3.56 1.413-.853 3.04-1.28 4.88-1.28 2.64 0 4.706.853 6.2 2.56 1.493 1.68 2.24 4 2.24 6.96 0 .827-.467 1.24-1.4 1.24h-13.24c.106 2.213.746 3.907 1.92 5.08 1.173 1.147 2.8 1.72 4.88 1.72.88 0 1.773-.107 2.68-.32.906-.24 1.786-.653 2.64-1.24.613-.4 1.12-.48 1.52-.24.426.24.64.613.64 1.12.026.48-.24.907-.8 1.28-.88.64-1.934 1.133-3.16 1.48-1.2.347-2.374.52-3.52.52Zm-.52-17.76c-1.84 0-3.294.573-4.36 1.72-1.067 1.147-1.694 2.653-1.88 4.52h11.8c-.08-1.973-.6-3.507-1.56-4.6-.934-1.093-2.267-1.64-4-1.64Zm14.689 17.68c-1.093 0-1.64-.56-1.64-1.68V14.92c0-1.093.52-1.64 1.56-1.64 1.067 0 1.6.547 1.6 1.64v2.12c.533-1.227 1.36-2.16 2.48-2.8 1.12-.667 2.453-1.027 4-1.08.853-.08 1.307.347 1.36 1.28.08.933-.4 1.453-1.44 1.56l-.64.08c-1.84.16-3.24.747-4.2 1.76-.96.987-1.44 2.347-1.44 4.08v9.68c0 1.12-.547 1.68-1.64 1.68Zm21.221.08c-3.066 0-5.493-.893-7.28-2.68-1.786-1.813-2.68-4.267-2.68-7.36 0-2 .4-3.76 1.2-5.28.8-1.547 1.894-2.733 3.28-3.56 1.414-.853 3.04-1.28 4.88-1.28 2.64 0 4.707.853 6.2 2.56 1.494 1.68 2.24 4 2.24 6.96 0 .827-.466 1.24-1.4 1.24h-13.24c.107 2.213.747 3.907 1.92 5.08 1.174 1.147 2.8 1.72 4.88 1.72.88 0 1.774-.107 2.68-.32.907-.24 1.787-.653 2.64-1.24.614-.4 1.12-.48 1.52-.24.427.24.64.613.64 1.12.027.48-.24.907-.8 1.28-.88.64-1.933 1.133-3.16 1.48-1.2.347-2.373.52-3.52.52Zm-.52-17.76c-1.84 0-3.293.573-4.36 1.72-1.066 1.147-1.693 2.653-1.88 4.52h11.8c-.08-1.973-.6-3.507-1.56-4.6-.933-1.093-2.266-1.64-4-1.64Zm20.449 17.76c-1.733 0-3.253-.413-4.56-1.24-1.28-.827-2.28-1.987-3-3.48-.693-1.52-1.04-3.307-1.04-5.36 0-2.08.347-3.867 1.04-5.36.72-1.52 1.72-2.68 3-3.48 1.307-.827 2.827-1.24 4.56-1.24 1.52 0 2.854.333 4 1 1.174.667 2.04 1.587 2.6 2.76V6.16c0-1.093.547-1.64 1.64-1.64 1.067 0 1.6.547 1.6 1.64V31.6c0 1.12-.533 1.68-1.6 1.68-1.066 0-1.6-.56-1.6-1.68v-2.08a6.607 6.607 0 0 1-2.64 2.84c-1.146.667-2.48 1-4 1Zm.68-2.6c1.814 0 3.267-.64 4.36-1.92 1.094-1.307 1.64-3.16 1.64-5.56 0-2.427-.546-4.28-1.64-5.56-1.093-1.28-2.546-1.92-4.36-1.92-1.84 0-3.306.64-4.4 1.92-1.066 1.28-1.6 3.133-1.6 5.56 0 2.4.534 4.253 1.6 5.56 1.094 1.28 2.56 1.92 4.4 1.92Z"/><path fill="#EBEBEB" d="M669.927 357.839h-25.843v.194h25.843v-.194ZM577.324 359.945h-6.781v.194h6.781v-.194ZM643.304 350.621H628.33v.194h14.974v-.194ZM393.513 351.926h-33.7v.194h33.7v-.194ZM405.405 351.926h-4.939v.194h4.939v-.194ZM494.559 355.205h-73.096v.194h73.096v-.194Z"/><path fill="#E5F7FF" d="M504.106 115.234c-11.345 12.549-16.963 29.643-16.003 46.505.959 16.862 7.202 33.009 14.801 48.106 6.656 13.225 14.607 28.222 9.161 41.983-3.043 7.693-9.98 13.389-17.65 16.559-7.67 3.17-16.081 4.087-24.376 4.499-14.138.707-28.488.062-42.244 3.365-13.756 3.302-27.302 11.461-32.623 24.523-6.266 15.393.85 33.809 13.397 44.741 12.555 10.933 29.393 15.627 45.911 17.95a202.322 202.322 0 0 0 69.718-2.393c18.36-3.878 36.424-10.475 51.405-21.734 14.973-11.259 26.662-27.546 29.869-45.962 3.199-18.415-3.012-38.781-17.666-50.452-6.094-4.857-13.444-8.175-18.789-13.839-5.345-5.665-8.06-15.098-3.097-21.097 3.277-3.963 8.801-5.175 13.92-5.789 25.179-2.991 53.074 2.176 74.134-11.896 12.055-8.058 19.858-21.796 21.575-36.156 1.716-14.359-1.397-29.9-10.48-41.182-24.758-30.716-130.641-31.268-160.963 2.269Z"/><path fill="#E5F7FF" d="M513.949 380c83.554 0 151.288-3.938 151.288-8.796 0-4.858-67.734-8.796-151.288-8.796-83.554 0-151.288 3.938-151.288 8.796 0 4.858 67.734 8.796 151.288 8.796Z"/><path fill="#00BDD3" d="m501.521 247.896 1.95-11.213 3.831 1.112-5.781 10.101ZM502.808 251.478l10.971-3.155-1.522-3.675-9.449 6.83ZM504.759 247.267l6.25-11.772 4.205 2.913-10.455 8.859ZM401.504 264.921h-4.939a.385.385 0 0 1-.39-.389c0-.218.171-.388.39-.388h4.939c.219 0 .39.17.39.388a.385.385 0 0 1-.39.389ZM393.28 264.921h-24.758a.385.385 0 0 1-.39-.389c0-.218.171-.388.39-.388h24.75c.219 0 .39.17.39.388a.384.384 0 0 1-.382.389ZM481.061 309.881a.393.393 0 0 1-.266-.101.391.391 0 0 1-.023-.552l2.309-2.502a.402.402 0 0 1 .554-.023.39.39 0 0 1 .024.551l-2.31 2.503a.38.38 0 0 1-.288.124ZM459.907 329.796a.402.402 0 0 1-.351-.21.386.386 0 0 1 .172-.521c7.233-3.644 18.688-17.273 18.805-17.413a.387.387 0 0 1 .593.497c-.476.568-11.681 13.886-19.055 17.608a.342.342 0 0 1-.164.039Z"/><path fill="#F6B69E" d="m516.055 325.538 5.571-4.592-14.029-13.257-5.985 5.09 14.443 12.759Z"/><path fill="#00BDD3" d="M526.136 319.182c-.374-.233-1.139-.124-1.927.093-.375.109-.765.233-1.108.358-.273.101-.523.202-.734.287-.312.132-.538.233-.616.272-.07.016-.117.085-.125.163-.008.023.008.055.024.078a.16.16 0 0 0 .109.078c.788.209 1.599.341 2.419.404.398.054.811.023 1.193-.086.024-.008.039-.008.055-.015.219-.07.437-.164.632-.28a.99.99 0 0 0 .367-.863.587.587 0 0 0-.289-.489Zm-.078.505a.593.593 0 0 1-.25.583c-.148.124-.359.202-.632.256-.265.055-.585.07-.952.047a10.792 10.792 0 0 1-1.482-.187l-.367-.07a9.822 9.822 0 0 1 2.076-.722 9.549 9.549 0 0 1 1.155-.187.67.67 0 0 1 .327.078c.086.046.133.124.125.202Z"/><path fill="#00BDD3" d="M523.585 316.26a1.342 1.342 0 0 0-.889.567 1.32 1.32 0 0 0-.156.295c-.469 1.003-.227 2.518-.172 2.798.008.023.008.031.008.039a.157.157 0 0 0 .117.132c.031.015.07.023.109.007.023 0 .047-.015.07-.038.133-.109.273-.257.429-.436a6.29 6.29 0 0 0 .664-.932c.483-.785.827-1.671.616-2.129-.086-.179-.289-.389-.796-.303Zm.468.458c.133.303-.125.995-.522 1.679-.258.435-.554.855-.851 1.165-.062-.489-.125-1.422.117-2.113.047-.156.117-.303.203-.42.133-.186.32-.334.538-.396l.11-.016c.327-.054.39.063.405.101Z"/><path fill="#0E1F3D" d="m520.901 320.62-6.991 3.512a.61.61 0 0 0-.328.73l2.06 6.512c.226.637.928.971 1.576.746.039-.016.086-.031.125-.047 11.977-4.188 15.645-7.156 16.901-7.832 3.566-1.935 1.56-4.453.234-4.142-5.969 1.422-7.975 1.057-10.557.388-1.381-.209-2.599-.077-3.02.133Z"/><path fill="#000" d="m507.597 307.697 7.108 6.27-5.992 5.09-7.101-6.271 5.985-5.089Z" opacity=".2"/><path fill="#00BDD3" d="m505.388 319.011 8.935-8.205-1.967-3.443-10.331 8.835 3.363 2.813Z"/><path fill="#fff" d="m505.388 319.011 8.935-8.205-1.967-3.443-10.331 8.835 3.363 2.813Z" opacity=".5"/><path fill="#00BDD3" d="m510.952 308.567-1.193 1.026-1.787 1.53-1.069.902-3.114 2.665-.6.505s-12.727-7.141-19.812-13.241c-4.853-4.18-5.29-5.734-5.797-5.345-6.843 5.182-27.099 23.101-38.577 32.425-.375.039-.741.078-1.124.101-6.133.451-10.955-.225-14.7-1.647-.039-4.958 4.221-16.535 4.572-17.654 0 0 16.94-16.769 44.383-30.942.273-.14.554-.249.827-.365.359-.155.71-.303 1.076-.435 1.436-.544 2.841-.878 4.206-.948 1.225-.062 2.419.155 3.566.559a13.73 13.73 0 0 1 1.904.832c.546.272 1.077.59 1.592.917.85.536 1.669 1.134 2.442 1.725 1.748 1.344 15.005 18.353 22.136 26.201v.008c.375.443.734.831 1.069 1.181Z"/><path fill="#000" d="m510.952 308.567-1.193 1.026-1.787 1.53-1.069.902-3.114 2.665-.6.505s-12.727-7.141-19.812-13.241c-4.853-4.18-5.29-5.734-5.797-5.345-6.843 5.182-27.099 23.101-38.577 32.425-.375.039-.741.078-1.124.101-6.133.451-10.955-.225-14.7-1.647-.039-4.958 4.221-16.535 4.572-17.654 0 0 16.94-16.769 44.383-30.942.273-.14.554-.249.827-.365.359-.155.71-.303 1.076-.435 1.436-.544 2.841-.878 4.206-.948 1.225-.062 2.419.155 3.566.559a13.73 13.73 0 0 1 1.904.832c.546.272 1.077.59 1.592.917.85.536 1.669 1.134 2.442 1.725 1.748 1.344 15.005 18.353 22.136 26.201v.008c.375.443.734.831 1.069 1.181Z" opacity=".1"/><path fill="#F6B69E" d="M420.558 236.987c1.069 4.841 2.193 11.905-1.139 15.222a107.616 107.616 0 0 0 14.81 20.126c7.311-12.658.382-20.483.382-20.483-5.478-1.166-5.392-3.365-4.533-7.156l-9.52-7.709Z"/><path fill="#00BDD3" d="M416.032 252.823a6.144 6.144 0 0 1 2.372-3.233c1.093-.839 12.453-.963 15.411 0a7.435 7.435 0 0 1 4.127 3.241l-21.91-.008Z"/><path fill="#F6B69E" d="m468.444 272.094 2.941-1.337.149 4.771s-1.374 1.22-2.88 1.686c-1.443.443-2.816-.878-2.458-2.338a4.164 4.164 0 0 1 2.248-2.782Z"/><path fill="#F6B69E" d="m475.137 272.109-.156 1.749a1.233 1.233 0 0 1-.967 1.111l-2.513.559-.148-4.771 2.552.039a1.213 1.213 0 0 1 1.232 1.205v.108ZM431.138 285.668c4.417 2.168 9.832 3.412 15.146 2.518 6.257-1.049 17.158-7.304 21.902-10.894l-1.6-2.37c-2.364.505-21.683 10.28-34.168 1.437-2.325-1.647-11.454-8.43-14.685-8.29-5.235.233-4.783 5.695-2.536 7.972 2.646 2.657 12.329 7.856 15.941 9.627Z"/><g fill="#000" opacity=".2"><path d="M474.982 273.857a1.25 1.25 0 0 1-.967 1.112l-2.497.559v.008s-1.373 1.22-2.872 1.686a1.62 1.62 0 0 1-.46.078l-.008.007c-4.744 3.59-15.637 9.838-21.894 10.887-5.314.886-10.729-.35-15.146-2.526-3.612-1.771-13.311-6.97-15.941-9.627-2.247-2.277-2.699-7.732 2.536-7.972 3.223-.14 12.36 6.643 14.685 8.29 11.907 8.431 30.025-.069 33.732-1.313.007-.054.015-.116.031-.171a4.183 4.183 0 0 1 2.247-2.789l2.91-1.321.032-.008 2.528.031a1.213 1.213 0 0 1 1.225 1.212v.101l-.141 1.756Z" opacity=".2"/><path d="m471.376 270.757-.023.008v-.008h.023Z" opacity=".2"/></g><path fill="#00BDD3" d="M447.501 260.632c6.624 14.538-8.739 18.688-1.701 42.527l-33.396.8c.226-12.774 4.783-10.031-1.225-34.049-.507-2.036-1.358-7.872.819-13.186.851-2.067 2.357-3.823 4.331-4.888 2.465-1.329 13.327-.287 18.282.039 5.368-.746 11.907 6.939 12.89 8.757Z"/><path fill="#fff" d="M447.501 260.632c6.624 14.538-8.739 18.688-1.701 42.527l-33.396.8c.226-12.774 4.783-10.031-1.225-34.049-.507-2.036-1.358-7.872.819-13.186.851-2.067 2.357-3.823 4.331-4.888 2.465-1.329 13.327-.287 18.282.039 5.368-.746 11.907 6.939 12.89 8.757Z" opacity=".5"/><path fill="#0E1F3D" d="M441.118 231.789c-.093.637.164 1.157.562 1.212.398.054.804-.389.89-1.003.093-.614-.164-1.157-.562-1.212-.398-.046-.804.396-.89 1.003Z"/><path fill="#0E1F3D" d="m441.828 230.802 1.529-.21c0-.008-.921 1.033-1.529.21Z"/><path fill="#A02724" d="M441.219 232.628s.656 2.782 1.623 4.204c-.92.637-2.247.093-2.247.093l.624-4.297Z"/><path fill="#0E1F3D" d="M443.326 227.516a.378.378 0 0 0 .226-.28.36.36 0 0 0-.304-.412 3.611 3.611 0 0 0-3.168.995.365.365 0 0 0-.023.513c.14.148.367.155.515.023.015-.015.031-.031.047-.054a2.91 2.91 0 0 1 2.52-.754c.062.007.133 0 .187-.031Z"/><path fill="#F6B69E" d="M420.909 226.761c-.632 7.576-1.061 10.762 2.184 15.168 4.885 6.628 14.373 5.758 17.252-1.484 2.607-6.512 3.207-17.802-3.737-21.858-4.947-2.922-11.33-1.298-14.271 3.621a10.215 10.215 0 0 0-1.428 4.553Z"/><path fill="#0E1F3D" d="M440.517 239.987a4.154 4.154 0 0 1-1.264-1.85c-.023-.077.023-.163.109-.194a.152.152 0 0 1 .188.109c.226.629.6 1.181 1.084 1.624l-.117.311ZM415.486 216.908c-2.903 3.916-4.222 4.934-.632 15.354 1.443 4.188 5.633 9.736 7.67 10.241 3.652.917 7.202-1.639 9.948-4.211 2.404-2.254 4.705-4.686 6.165-7.631 1.459-2.945 1.997-6.473.795-9.526-1.31-3.318-5.937-6.279-9.402-7.009-4.073-.855-12.133-.474-14.544 2.782Z"/><path fill="#0E1F3D" d="M438.237 231.307s.913 1.562-.241 2.727l.023-2.082.218-.645Z"/><path fill="#0E1F3D" d="M438.223 231.307s.336 2.393-1.678 3.287l1.085-2.588.593-.699ZM424.826 241.617s-2.216 1.003-1.896 3.171l1.615-2.293.281-.878Z"/><path fill="#0E1F3D" d="M424.912 241.664s-1.685 1.741-.577 3.644l.647-2.727-.07-.917ZM441.274 228.183c.788-.808 1.592-1.632 2.169-2.603.585-.971.936-2.121.765-3.233-.227-1.445-1.319-2.634-2.591-3.364-1.272-.723-2.731-1.049-4.167-1.368-.702-.155-1.49-.303-2.106.07-.601.358-.859 1.111-.82 1.803.032.692.312 1.344.562 1.989.991 2.526 1.615 5.121 2.091 7.778.242 1.345.055 2.23 1.389 1.718.89-.35 2.029-2.091 2.708-2.79Z"/><path fill="#F6B69E" d="M430.772 231.921a6.615 6.615 0 0 0 1.725 4.763c1.584 1.717 3.597.59 4.174-1.539.531-1.911.328-5.105-1.748-6.022-2.075-.924-4.042.661-4.151 2.798ZM519.271 329.034l6.023-5.851-11.657-14.6-7.288 4.281 12.922 16.17Z"/><path fill="#00BDD3" d="M531.443 321.381c-.671-.234-2.045.512-3.082 1.173-.266.163-.5.326-.703.466l-.015.008-.102.078c-.234.163-.405.287-.468.334a.173.173 0 0 0-.094.194.202.202 0 0 0 .172.14c.718.031 1.436.008 2.154-.07.164-.016.32-.031.476-.055a2.99 2.99 0 0 0 1.451-.497c.156-.101.304-.21.429-.334a1.05 1.05 0 0 0 .195-.987.677.677 0 0 0-.413-.45Zm.046.559a.674.674 0 0 1-.124.668c-.203.249-.609.451-1.186.591a8.635 8.635 0 0 1-1.616.217c-.249.008-.515.024-.788.024.086-.07.172-.132.266-.195.062-.046.124-.085.187-.132a10.44 10.44 0 0 1 2.731-1.359.647.647 0 0 1 .367.007c.078.024.14.094.163.179Z"/><path fill="#00BDD3" d="M528.102 318.902a1.4 1.4 0 0 0-.796.792c-.491 1.197.234 3.039.359 3.326 0 .008 0 .008.008.008 0 .015 0 .023.008.023a.201.201 0 0 0 .156.117.2.2 0 0 0 .117-.016.138.138 0 0 0 .062-.046c.008-.016.016-.016.024-.024a2.94 2.94 0 0 0 .327-.528c.578-1.08 1.116-2.883.64-3.504-.14-.179-.398-.35-.905-.148Zm-.195 3.675c-.211-.614-.585-1.919-.242-2.727.094-.225.258-.42.476-.536l.109-.055c.336-.132.422-.015.453.024.335.45-.187 2.292-.796 3.294Z"/><path fill="#000" d="m513.021 307.689 5.493 7.001-7.428 4.118-5.579-6.814 7.514-4.305Z" opacity=".2"/><path fill="#0E1F3D" d="m412.099 301.426-.772 3.015c-.117.241.171.466.554.459l34.394-.808c.305-.016.546-.164.562-.35l-.858-3.163c.023-.202-.25-.373-.578-.365l-32.748.956a.602.602 0 0 0-.554.256Z"/><path fill="#00BDD3" d="m442.703 304.449-.906.093c-.179-.008-.327-.054-.327-.163l-.016-3.893c0-.109.148-.218.328-.241l.905-.101c.179.008.328.054.328.171l.015 3.893c-.008.109-.148.218-.327.241ZM430.39 304.605l-.906.093c-.179-.008-.319-.055-.327-.163l-.008-3.893c0-.109.148-.218.328-.241l.897-.101c.179.008.328.054.328.171l.015 3.893c0 .124-.148.217-.327.241Z"/><path fill="#00BDD3" d="m430.39 304.605-.906.093c-.179-.008-.319-.055-.327-.163l-.008-3.893c0-.109.148-.218.328-.241l.897-.101c.179.008.328.054.328.171l.015 3.893c0 .124-.148.217-.327.241Z"/><path fill="#00BDD3" d="m517.632 310.821-1.522.855-.007.007-2.614 1.469-2.349 1.313-.008.008-2.411 1.352v.008l-.92.52s-.211-.147-.578-.419c-.14-.101-.304-.218-.491-.358-.57-.427-1.374-1.025-2.302-1.764v-.007c-4.854-3.816-13.491-11.33-16.058-18.152-1.662 1.974-3.652 4.445-5.93 7.18-9.809 11.787-25.063 28.424-43.392 30.592a17.93 17.93 0 0 1-1.123.116c-6.125.529-10.955-.085-14.716-1.461-9.512-3.465-12.165-11.795-11.509-18.874v-.023c.054-3.31.71-9.216.71-9.216l34.699.039c4.892-5.913 14.7-15.175 24.734-21.019.234-.147.476-.287.718-.411.297-.179.601-.335.898-.498 3.261-1.779 6.523-3.154 9.613-3.9a24.402 24.402 0 0 1 2.036-.404 19.244 19.244 0 0 1 2.076-.202v.007c4.751-.217 8.879 1.547 11.68 6.271l18.259 26.233.507.738ZM498.906 274.915l-38.343 1.577 1.124-24.298 38.342-1.577-1.123 24.298Z"/><path fill="#0E1F3D" d="m498.461 276.834-37.788 1.554c-1.069.046-1.904-.793-1.85-1.857l1.116-24.143c.047-1.072.96-1.973 2.029-2.02l37.789-1.554c1.069-.047 1.904.785 1.849 1.857l-1.116 24.142c-.047 1.073-.96 1.974-2.029 2.021Z"/><path fill="#00BDD3" d="m498.906 274.915-38.343 1.577 1.124-24.298 38.342-1.577-1.123 24.298Z"/><path fill="#fff" d="m498.906 274.915-38.343 1.577 1.124-24.298 38.342-1.577-1.123 24.298Z" opacity=".9"/><path fill="#fff" d="m475.295 249.824-6.336 28.206 2.52-.101 6.25-28.206-2.434.101ZM479.18 249.668l-6.336 28.207 5.002-.21 6.25-28.199-4.916.202Z" opacity=".1"/><path fill="#00BDD3" d="m486.46 277.137 12.765-.358c.219 1.477-.413 2.028-1.225 2.052l-4.081.101-2.723.062-4.237.116-26.287.762-.211-1.842 25.999-.893Z"/><path fill="#00BDD3" d="m486.46 277.136 12.765-.357c.219 1.476-.413 2.028-1.225 2.051l-4.081.101-2.723.062-4.237.117-32.537.995a.948.948 0 0 1-.882-.537.943.943 0 0 1 .819-1.344l32.101-1.088Z"/><path fill="#000" d="m486.46 277.136 12.765-.357c.219 1.476-.413 2.028-1.225 2.051l-4.081.101-2.723.062-4.237.117-32.537.995a.948.948 0 0 1-.882-.537.943.943 0 0 1 .819-1.344l32.101-1.088Z" opacity=".2"/><path fill="#000" d="m499.226 276.779.078.513a1.35 1.35 0 0 1-1.303 1.538l-4.081.101-7.577.272.125-2.067 12.758-.357ZM433.105 261.347s-1.803 3.66 3.402 13.326l2.177 3.94c.717 1.298 5.493-1.352 6.913-3.784 0 0-9.122-5.455-12.492-13.482Z" opacity=".2"/><path fill="#F6B69E" d="m477.244 272.613 3.628-1.064-.585 5.587s-5.064 3.372-6.82.147l.703-1.802a4.925 4.925 0 0 1 3.074-2.868Z"/><path fill="#F6B69E" d="m485.039 273.748-.453 2.013a1.45 1.45 0 0 1-1.303 1.134l-3.019.233.585-5.586 2.965.466a1.43 1.43 0 0 1 1.241 1.608c0 .047-.008.086-.016.132ZM447.032 282.063c2.528 3.418 6.086 6.27 10.276 7.086 4.932.964 14.42-5.983 18.867-10.482-.226-1.896-.093-2.922-1.997-3.186 0 0-4.892 3.574-14.131 5.719-2.98.692-4.97-2.347-7.576-6.768-1.296-2.207-5.493-11.244-7.077-13.256-2.536-3.233-9.77-.917-6.898 6.861 1.209 3.271 6.468 11.228 8.536 14.026Z"/><path fill="#00BDD3" d="M444.333 255.885c5.134 4.693 7.631 12.992 7.631 12.992l-11.985 7.273s-8.763-12.246-7.202-16.512c1.233-3.311 3.519-5.486 6.523-5.673 1.865-.109 3.66.661 5.033 1.92ZM416.852 305.079l-.905.023c-.18-.023-.32-.085-.312-.202l.327-3.877c.016-.117.164-.21.344-.218l.905-.023c.179.023.32.093.312.202l-.328 3.885c-.008.109-.164.225-.343.21ZM506.326 318.001l11.673-5.812-.999-4.134-13.312 6.053 2.638 3.893Z"/><path fill="#fff" d="m506.326 318.001 11.673-5.812-.999-4.134-13.312 6.053 2.638 3.893Z" opacity=".5"/><path fill="#0E1F3D" d="m524.826 322.546-8.053 2.433a.655.655 0 0 0-.484.714l.968 7.273a1.323 1.323 0 0 0 1.522 1.081c.046-.008.093-.016.14-.032 13.452-2.23 17.892-4.685 19.335-5.175 4.128-1.39 2.482-4.429 1.015-4.335-6.586.404-8.638-.35-11.252-1.531-1.397-.49-2.708-.567-3.191-.428ZM416.547 226.668c-2.419.381-4.814-1.469-5.571-3.784-.757-2.316-.133-4.903 1.108-7.009.913-1.554 6.898-5.237 9.121-1.088 4.417 8.26-4.658 11.881-4.658 11.881Z"/><path fill="#00BDD3" d="m498.562 258.946-23.604 1.002.11-2.331 23.603-1.002-.109 2.331Z"/><path fill="#fff" d="m498.562 258.946-23.604 1.002.11-2.331 23.603-1.002-.109 2.331Z" opacity=".7"/><path fill="#00BDD3" d="m498.422 262.186-23.604.995.102-2.331 23.603-.995-.101 2.331Z"/><path fill="#fff" d="m498.422 262.186-23.604.995.102-2.331 23.603-.995-.101 2.331Z" opacity=".7"/><path fill="#00BDD3" d="m498.274 265.419-23.604 1.002.11-2.331 23.603-1.003-.109 2.332Z"/><path fill="#fff" d="m498.274 265.419-23.604 1.002.11-2.331 23.603-1.003-.109 2.332Z" opacity=".7"/><path fill="#00BDD3" d="m498.126 268.659-23.604.995.11-2.331 23.603-.995-.109 2.331Z"/><path fill="#fff" d="m498.126 268.659-23.604.995.11-2.331 23.603-.995-.109 2.331Z" opacity=".7"/><path fill="#00BDD3" d="m497.985 271.892-23.604 1.003.102-2.332 23.603-1.002-.101 2.331Z"/><path fill="#fff" d="m497.985 271.892-23.604 1.003.102-2.332 23.603-1.002-.101 2.331Z" opacity=".7"/><path fill="#00BDD3" d="m465.432 261.25-1.894.082.033.776 1.895-.082-.034-.776Z"/><path fill="#fff" d="m465.432 261.25-1.894.082.033.776 1.895-.082-.034-.776Z" opacity=".5"/><path fill="#00BDD3" d="m465.347 263.495-1.895.081.034.776 1.894-.081-.033-.776Z"/><path fill="#fff" d="m465.347 263.495-1.895.081.034.776 1.894-.081-.033-.776Z" opacity=".5"/><path fill="#00BDD3" d="m465.251 265.733-1.894.081.033.777 1.895-.082-.034-.776Z"/><path fill="#fff" d="m465.251 265.733-1.894.081.033.777 1.895-.082-.034-.776Z" opacity=".5"/><path fill="#00BDD3" d="m465.166 267.979-1.894.082.033.776 1.895-.082-.034-.776Z"/><path fill="#fff" d="m465.166 267.979-1.894.082.033.776 1.895-.082-.034-.776Z" opacity=".5"/><path fill="#00BDD3" d="m465.073 270.217-1.894.081.033.777 1.894-.082-.033-.776Z"/><path fill="#fff" d="m463.208 271.084.07-.785 1.888-.078-.07.777-1.888.086Z" opacity=".5"/><path fill="#00BDD3" d="m464.982 272.456-1.894.08.033.776 1.894-.079-.033-.777Z"/><path fill="#fff" d="m464.982 272.456-1.894.08.033.776 1.894-.079-.033-.777Z" opacity=".5"/><path fill="#00BDD3" d="m467.397 259.109-3.917 1.453.039-1.025 2.17-.35-2.146-.148.039-1.025 3.815 1.095ZM491.313 255.402l-16.355.692.079-1.616 16.354-.692-.078 1.616Z"/><path fill="#fff" d="m491.313 255.402-16.355.692.079-1.616 16.354-.692-.078 1.616Z" opacity=".7"/><path fill="#00BDD3" d="m469.247 256.242-2.395.101.967-.614.265.248.289-.256.874.521ZM467.725 255.658l-.967.614.07-1.422.897.808ZM469.403 254.804l-.078 1.352-.882-.513.96-.839Z"/><path fill="#fff" d="m468.118 255.397-.054.057.006.005.054-.056-.006-.006Z"/><path fill="#fff" d="m468.072 255.42-.006.005.053.057.006-.006-.053-.056Z"/><path fill="#00BDD3" d="m469.402 254.671-1.03.933-.289.248-.265-.24-.897-.809-.07-.069 2.551-.063ZM465.44 254.921l-1.894.08.01.233 1.894-.08-.01-.233ZM465.442 255.51l-1.894.081.01.233 1.894-.081-.01-.233ZM465.44 256.111l-1.894.08.01.233 1.894-.08-.01-.233ZM575.365 138.079h-11.368a1.862 1.862 0 0 1-1.865-1.858c0-1.025.835-1.857 1.865-1.857h11.368c1.03 0 1.865.832 1.865 1.857a1.862 1.862 0 0 1-1.865 1.858Z"/><path fill="#fff" d="M575.365 138.079h-11.368a1.862 1.862 0 0 1-1.865-1.858c0-1.025.835-1.857 1.865-1.857h11.368c1.03 0 1.865.832 1.865 1.857a1.862 1.862 0 0 1-1.865 1.858Z" opacity=".7"/><path fill="#00BDD3" d="m617.072 176.238-43.587 79.879a2.135 2.135 0 0 1-2.887.847l-74.165-40.134a2.118 2.118 0 0 1-.851-2.875l56.687-103.897a2.138 2.138 0 0 1 2.888-.847l49.976 27.041 11.939 39.986Z"/><path fill="#fff" d="m617.072 176.238-43.587 79.879a2.135 2.135 0 0 1-2.887.847l-74.165-40.134a2.118 2.118 0 0 1-.851-2.875l56.687-103.897a2.138 2.138 0 0 1 2.888-.847l49.976 27.041 11.939 39.986Z" opacity=".2"/><path fill="#00BDD3" d="m592.619 194.167-55.391-29.759-1.853 3.42 55.391 29.758 1.853-3.419ZM585.049 208.138l-55.391-29.759-1.852 3.42 55.391 29.758 1.852-3.419ZM577.482 222.109l-55.391-29.758-1.852 3.419 55.391 29.758 1.852-3.419ZM605.196 136.221l-13.14 24.096a2.118 2.118 0 0 0 .851 2.875l24.118 13.054-11.829-40.025Z"/><path fill="#fff" d="m605.196 136.221-13.14 24.096a2.118 2.118 0 0 0 .851 2.875l24.118 13.054-11.829-40.025Z" opacity=".7"/><path fill="#00BDD3" d="m628.432 173.549-43.586 79.879a2.135 2.135 0 0 1-2.887.847l-74.166-40.134a2.117 2.117 0 0 1-.85-2.875l56.687-103.897a2.137 2.137 0 0 1 2.887-.847l49.977 27.041 11.938 39.986Z"/><path fill="#fff" d="m628.432 173.549-43.586 79.879a2.135 2.135 0 0 1-2.887.847l-74.166-40.134a2.117 2.117 0 0 1-.85-2.875l56.687-103.897a2.137 2.137 0 0 1 2.887-.847l49.977 27.041 11.938 39.986Z" opacity=".5"/><path fill="#00BDD3" d="m602.504 190.683-52.435-28.167a1.693 1.693 0 0 0-2.278.676l-.258.474a1.679 1.679 0 0 0 .679 2.269l52.435 28.167a1.693 1.693 0 0 0 2.278-.676l.257-.474a1.664 1.664 0 0 0-.678-2.269ZM594.935 204.654 542.5 176.486a1.693 1.693 0 0 0-2.278.676l-.258.474a1.68 1.68 0 0 0 .679 2.269l52.435 28.168a1.693 1.693 0 0 0 2.278-.676l.258-.474a1.667 1.667 0 0 0-.679-2.269ZM587.366 218.625l-52.434-28.167a1.694 1.694 0 0 0-2.279.676l-.257.474a1.679 1.679 0 0 0 .679 2.269l52.434 28.167c.82.435 1.834.132 2.279-.676l.257-.474a1.665 1.665 0 0 0-.679-2.269ZM616.565 133.532l-13.148 24.096a2.117 2.117 0 0 0 .85 2.875l24.119 13.054-11.821-40.025Z"/><path fill="#fff" d="m616.565 133.532-13.148 24.096a2.117 2.117 0 0 0 .85 2.875l24.119 13.054-11.821-40.025Z" opacity=".7"/><path fill="#F4E041" d="m613.552 96.911 3.667 16.217c-13.888 3.8-26.35 17.483-35.315 30.421-3.535 5.105-6.531 11.034-8.77 17.304 0 0 28.004-25.23 43.446-26.706l-.734 26.807s16.011-31.058 47.113-42.426c-.008-.008-26.053-18.687-49.407-21.617Z"/><path fill="#00BDD3" d="m424.616 274.083 7.077 80.555h-11.408l-7.615-86.686h5.228c3.503 0 6.414 2.658 6.718 6.131Z"/><path fill="#000" d="m424.685 274.806 7.015 79.832h-11.408l-7.615-86.686h4.494c3.909 0 7.171 2.976 7.514 6.854Z" opacity=".2"/><path fill="#00BDD3" d="m417.203 273.197 7.155 81.441h-67.915l-7.069-80.438c-.297-3.357 2.364-6.248 5.75-6.248h56.321c3.004 0 5.501 2.277 5.758 5.245Z"/><path fill="#fff" d="m417.28 274.083 7.077 80.555h-67.915l-6.976-79.382c-.343-3.924 2.763-7.304 6.719-7.304h54.369c3.504 0 6.422 2.658 6.726 6.131Z" opacity=".2"/><path fill="#00BDD3" d="M536.727 354.638H356.756l-1.959-22.34h172.762c3.987 0 7.498 3.217 7.841 7.188l1.327 15.152Z"/><path fill="#fff" d="M536.727 354.638H356.756l-1.959-22.34h172.762c3.987 0 7.498 3.217 7.841 7.188l1.327 15.152Z" opacity=".2"/><path fill="#00BDD3" d="M544.981 363.193H354.64c-2.465 0-4.471-1.989-4.471-4.452 0-2.455 1.998-4.452 4.471-4.452h190.341c2.466 0 4.471 1.989 4.471 4.452 0 2.455-2.005 4.452-4.471 4.452Z"/><path fill="#000" d="M544.982 363.193H434.487c-2.466 0-4.471-1.989-4.471-4.452 0-2.455 1.997-4.452 4.471-4.452h110.495c2.465 0 4.471 1.989 4.471 4.452 0 2.455-2.006 4.452-4.471 4.452Z" opacity=".2"/><path fill="#263238" d="m357.138 363.193 2.255 7.646h4.51l2.481-7.646h-9.246Z"/><path fill="#fff" d="m357.138 363.193 2.255 7.646h4.51l2.481-7.646h-9.246Z" opacity=".5"/><path fill="#263238" d="m421.768 363.193 2.255 7.646h4.51l2.481-7.646h-9.246Z"/><path fill="#fff" d="m421.768 363.193 2.255 7.646h4.51l2.481-7.646h-9.246Z" opacity=".5"/><path fill="#263238" d="m471.238 363.193 2.255 7.646h4.51l2.481-7.646h-9.246Z"/><path fill="#fff" d="m471.238 363.193 2.255 7.646h4.51l2.481-7.646h-9.246Z" opacity=".5"/><path fill="#263238" d="m535.868 363.193 2.255 7.646h4.51l2.481-7.646h-9.246Z"/><path fill="#fff" d="m535.868 363.193 2.255 7.646h4.51l2.481-7.646h-9.246Z" opacity=".5"/><path fill="#EA5924" d="M609.432 240.254c0 17.215-13.964 31.171-31.19 31.171-17.225 0-31.189-13.956-31.189-31.171 0-17.216 13.964-31.172 31.189-31.172 17.226 0 31.19 13.956 31.19 31.172Z"/><path fill="#fff" d="m574.212 246.733-5.11-5.107a1.437 1.437 0 0 0-2.045 0 1.436 1.436 0 0 0 0 2.043l6.119 6.114a1.455 1.455 0 0 0 2.059 0l15.478-15.454a1.436 1.436 0 0 0 0-2.043 1.438 1.438 0 0 0-2.045 0l-14.456 14.447Z"/></svg>